<?xml version="1.0" encoding="UTF-8"?>
<svg id="Layer_1" data-name="Layer 1" xmlns="http://www.w3.org/2000/svg" viewBox="0 0 194.67 47.14">
  <defs>
    <style>
      .cls-1 {
        fill: #0e5ca6;
      }

      .cls-1, .cls-2 {
        stroke-width: 0px;
      }

      .cls-2 {
        fill: #fff;
      }
    </style>
  </defs>
  <g>
    <path class="cls-1" d="M.38,45.71l-.38-6.4,1.96-.21,1.75,3.32c.42.82.94,1.42,1.56,1.82s1.6.59,2.96.59c1.17,0,2.15-.33,2.94-.98.79-.65,1.19-1.57,1.19-2.76s-.3-2.15-.91-2.87c-.61-.72-1.82-1.6-3.64-2.62-2.89-1.63-4.86-3-5.89-4.09-1.04-1.1-1.56-2.49-1.56-4.2,0-2.03.72-3.59,2.15-4.69,1.43-1.1,3.55-1.64,6.35-1.64,2.59,0,4.98.26,7.17.77l.42,6.16-1.96.21-1.64-3.18c-.58-1.1-1.94-1.64-4.06-1.64-2.33,0-3.5.94-3.5,2.83,0,.93.33,1.71.98,2.34s2.26,1.64,4.83,3.04c2.68,1.47,4.45,2.77,5.3,3.9.85,1.13,1.28,2.54,1.28,4.21,0,.51-.06,1.06-.19,1.63-.13.57-.41,1.22-.84,1.94-.43.72-.99,1.37-1.66,1.94-.68.57-1.63,1.05-2.87,1.43-1.24.38-2.65.58-4.23.58-2.59,0-5.08-.48-7.48-1.43Z"/>
    <path class="cls-1" d="M36.95,21.54c1.29.37,2.46,1.03,3.5,1.96,1.04.93,1.82,2.27,2.34,4,.52,1.74.79,3.88.79,6.42,0,4.66-.97,8.03-2.92,10.11-1.95,2.08-4.75,3.11-8.41,3.11s-6.67-.99-8.53-2.97c-1.87-1.98-2.8-5.4-2.8-10.25,0-2.52.26-4.64.79-6.37.52-1.73,1.31-3.05,2.36-3.99,1.05-.93,2.23-1.6,3.55-1.99s2.89-.59,4.7-.59,3.34.19,4.63.56ZM29.12,24.16c-.8.58-1.42,1.65-1.85,3.2-.43,1.55-.65,3.69-.65,6.42,0,3.94.38,6.77,1.15,8.48.77,1.71,2.26,2.57,4.48,2.57,2.05,0,3.5-.89,4.35-2.66s1.28-4.57,1.28-8.39c0-2.7-.22-4.84-.66-6.42-.44-1.57-1.05-2.65-1.82-3.22-.77-.57-1.78-.86-3.04-.86-1.35,0-2.43.29-3.24.87Z"/>
    <path class="cls-1" d="M59.32,44.17c.54,0,.93-.08,1.17-.24.24-.16.47-.49.68-.98l1.36-3.36,1.92.21-.63,6.82h-17.45v-1.54l1.47-.38c.21-.05.35-.15.42-.3.07-.15.1-.43.1-.82v-19.1c0-.4-.03-.67-.1-.82-.07-.15-.21-.25-.42-.3l-1.47-.38v-1.54h9.44v1.54l-1.47.38c-.37.09-.56.47-.56,1.12v19.69h5.53Z"/>
    <path class="cls-1" d="M86.56,39.48c0,2.56-.75,4.48-2.24,5.75-1.49,1.27-3.5,1.91-6.02,1.91-3.29,0-5.73-.61-7.33-1.84-1.6-1.22-2.4-3.33-2.4-6.31v-14.51c0-.4-.03-.67-.1-.82-.07-.15-.22-.25-.45-.3l-1.43-.38v-1.54h9.37v1.54l-1.43.38c-.23.05-.38.15-.45.3-.07.15-.1.43-.1.82v14.16c0,.89.06,1.66.17,2.31.12.65.34,1.29.66,1.91.33.62.83,1.09,1.52,1.42.69.33,1.56.49,2.61.49.63,0,1.22-.08,1.77-.24.55-.16,1.08-.45,1.61-.86.52-.41.94-1.02,1.24-1.84.3-.82.45-1.81.45-2.97v-14.37c0-.4-.03-.67-.1-.82-.07-.15-.21-.25-.42-.3l-1.47-.38v-1.54h6.54v1.54l-1.43.38c-.23.05-.38.15-.45.3-.07.15-.1.43-.1.82v15Z"/>
    <path class="cls-1" d="M90.65,21.44h20.18l.35,6.4-1.68.21-1.5-2.76c-.3-.56-.57-.95-.8-1.17-.23-.22-.56-.33-.98-.33h-2.76v19.8c0,.4.04.67.11.82s.22.25.45.3l1.43.38v1.54h-9.41v-1.54l1.47-.38c.21-.05.35-.15.42-.3s.1-.43.1-.82v-19.8h-2.76c-.42,0-.75.11-.98.33s-.5.61-.8,1.17l-1.5,2.76-1.68-.21.35-6.4Z"/>
    <path class="cls-1" d="M120.73,43.57c0,.4.03.67.1.82s.22.25.45.3l1.43.38v1.54h-9.41v-1.54l1.47-.38c.21-.05.35-.15.42-.3s.11-.43.11-.82v-19.1c0-.4-.04-.67-.11-.82-.07-.15-.21-.25-.42-.3l-1.47-.38v-1.54h9.44v1.54l-1.47.38c-.23.05-.38.15-.45.3-.07.15-.1.43-.1.82v19.1Z"/>
    <path class="cls-1" d="M141.74,21.54c1.29.37,2.46,1.03,3.5,1.96,1.04.93,1.82,2.27,2.34,4,.52,1.74.79,3.88.79,6.42,0,4.66-.97,8.03-2.92,10.11-1.95,2.08-4.75,3.11-8.41,3.11s-6.67-.99-8.53-2.97c-1.87-1.98-2.8-5.4-2.8-10.25,0-2.52.26-4.64.79-6.37.52-1.73,1.31-3.05,2.36-3.99,1.05-.93,2.23-1.6,3.55-1.99,1.32-.4,2.89-.59,4.7-.59s3.34.19,4.63.56ZM133.9,24.16c-.8.58-1.42,1.65-1.85,3.2-.43,1.55-.65,3.69-.65,6.42,0,3.94.38,6.77,1.15,8.48s2.26,2.57,4.48,2.57c2.05,0,3.5-.89,4.35-2.66s1.28-4.57,1.28-8.39c0-2.7-.22-4.84-.66-6.42-.44-1.57-1.05-2.65-1.82-3.22-.77-.57-1.78-.86-3.04-.86-1.35,0-2.43.29-3.24.87Z"/>
    <path class="cls-1" d="M155.53,42.74c0,.68.06,1.17.17,1.47.12.3.37.5.77.59l1.05.28v1.54h-6.54v-1.54l1.01-.28c.4-.09.66-.29.79-.59.13-.3.19-.79.19-1.47v-18.01c0-.58-.12-.98-.37-1.19-.24-.21-.78-.4-1.59-.56v-1.54h6.68l11.89,16.3v-13.26c0-.4-.04-.67-.1-.82-.07-.15-.22-.25-.45-.3l-1.43-.38v-1.54h6.54v1.54l-1.43.38c-.23.05-.38.15-.45.3-.07.15-.1.43-.1.82v22.14h-2.62l-13.99-18.96v15.07Z"/>
    <path class="cls-1" d="M177.39,45.71l-.38-6.4,1.96-.21,1.75,3.32c.42.82.94,1.42,1.56,1.82s1.6.59,2.96.59c1.17,0,2.15-.33,2.94-.98.79-.65,1.19-1.57,1.19-2.76s-.3-2.15-.91-2.87c-.61-.72-1.82-1.6-3.64-2.62-2.89-1.63-4.86-3-5.89-4.09-1.04-1.1-1.56-2.49-1.56-4.2,0-2.03.72-3.59,2.15-4.69,1.43-1.1,3.55-1.64,6.35-1.64,2.59,0,4.98.26,7.17.77l.42,6.16-1.96.21-1.64-3.18c-.58-1.1-1.94-1.64-4.06-1.64-2.33,0-3.5.94-3.5,2.83,0,.93.33,1.71.98,2.34.65.63,2.26,1.64,4.83,3.04,2.68,1.47,4.45,2.77,5.3,3.9.85,1.13,1.28,2.54,1.28,4.21,0,.51-.06,1.06-.19,1.63-.13.57-.41,1.22-.84,1.94-.43.72-.99,1.37-1.66,1.94-.68.57-1.63,1.05-2.87,1.43s-2.65.58-4.23.58c-2.59,0-5.08-.48-7.48-1.43Z"/>
  </g>
  <g>
    <path class="cls-2" d="M10.72,17.03c.48,0,.84-.08,1.07-.24s.46-.46.66-.88l1-2.05,1.41.15-.46,4.73H1.42v-1.13l1.05-.28c.17-.03.28-.11.33-.22.05-.11.08-.31.08-.6V2.56c0-.29-.03-.49-.08-.6s-.16-.18-.33-.22l-1.05-.28V.33h12.71l.26,4.63-1.25.15-.97-1.79c-.17-.31-.31-.53-.41-.68s-.28-.28-.54-.41c-.26-.13-.57-.19-.95-.19h-3.43v6.57h1.87c.31,0,.53-.13.68-.38.14-.26.35-.89.6-1.92h1.41v6.21h-1.41c-.27-1.01-.48-1.64-.61-1.89-.14-.26-.35-.38-.64-.38h-1.89v6.78h3.89Z"/>
    <path class="cls-2" d="M34.4,1.46c-.7.17-1.17.4-1.41.68s-.53.94-.87,1.98l-4.86,14.62h-2.81l-5.47-15.65c-.22-.63-.41-1.02-.58-1.18s-.52-.31-1.09-.46V.33h6.72v1.13c-.46.1-.76.21-.89.32-.14.11-.2.26-.2.45,0,.24.08.59.23,1.05l3.68,11.33,2.71-8.69c.49-1.57.74-2.58.74-3.04,0-.51-.1-.84-.29-1s-.6-.29-1.21-.41V.33h5.6v1.13Z"/>
    <path class="cls-2" d="M46.36,17.03c.48,0,.84-.08,1.07-.24s.46-.46.66-.88l1-2.05,1.41.15-.46,4.73h-12.99v-1.13l1.05-.28c.17-.03.28-.11.33-.22.05-.11.08-.31.08-.6V2.56c0-.29-.03-.49-.08-.6s-.16-.18-.33-.22l-1.05-.28V.33h12.71l.26,4.63-1.25.15-.97-1.79c-.17-.31-.31-.53-.41-.68s-.28-.28-.54-.41c-.26-.13-.57-.19-.95-.19h-3.43v6.57h1.87c.31,0,.53-.13.68-.38.14-.26.35-.89.6-1.92h1.41v6.21h-1.41c-.27-1.01-.48-1.64-.61-1.89-.14-.26-.35-.38-.64-.38h-1.89v6.78h3.89Z"/>
    <path class="cls-2" d="M56.59,15.9c0,.49.04.85.13,1.07.09.22.27.37.56.43l.77.2v1.13h-4.78v-1.13l.74-.2c.29-.07.48-.21.58-.43.09-.22.14-.58.14-1.07V2.74c0-.43-.09-.72-.27-.87s-.57-.29-1.16-.41V.33h4.88l8.69,11.91V2.56c0-.29-.03-.49-.08-.6-.05-.11-.16-.18-.33-.22l-1.05-.28V.33h4.78v1.13l-1.05.28c-.17.03-.28.11-.33.22s-.08.31-.08.6v16.18h-1.92l-10.23-13.86v11.02Z"/>
    <path class="cls-2" d="M72.5.33h14.75l.26,4.68-1.23.15-1.1-2.02c-.22-.41-.42-.69-.59-.86-.17-.16-.41-.24-.72-.24h-2.02v14.47c0,.29.03.49.08.6.05.11.16.18.33.22l1.05.28v1.13h-6.88v-1.13l1.07-.28c.15-.03.26-.11.31-.22.05-.11.08-.31.08-.6V2.05h-2.02c-.31,0-.55.08-.72.24-.17.16-.37.45-.59.86l-1.1,2.02-1.23-.15.26-4.68Z"/>
    <path class="cls-2" d="M95.17,18.08l-.28-4.68,1.43-.15,1.28,2.43c.31.6.69,1.04,1.14,1.33.45.29,1.17.43,2.16.43.85,0,1.57-.24,2.15-.72.58-.48.87-1.15.87-2.02s-.22-1.57-.66-2.1c-.44-.53-1.33-1.17-2.66-1.92-2.11-1.19-3.55-2.19-4.31-2.99-.76-.8-1.14-1.82-1.14-3.07,0-1.48.52-2.62,1.57-3.43,1.05-.8,2.6-1.2,4.64-1.2,1.89,0,3.64.19,5.24.56l.31,4.5-1.43.15-1.2-2.33c-.43-.8-1.41-1.2-2.97-1.2-1.7,0-2.56.69-2.56,2.07,0,.68.24,1.25.72,1.71.48.46,1.65,1.2,3.53,2.22,1.96,1.07,3.25,2.02,3.87,2.85.62.83.93,1.85.93,3.08,0,.37-.05.77-.14,1.19-.09.42-.3.89-.61,1.42-.32.53-.72,1-1.21,1.42-.49.42-1.19.77-2.1,1.05-.9.28-1.93.42-3.09.42-1.89,0-3.72-.35-5.47-1.05Z"/>
    <path class="cls-2" d="M122.42.41c.95.27,1.8.75,2.56,1.43s1.33,1.66,1.71,2.93.58,2.83.58,4.69c0,3.41-.71,5.87-2.13,7.39-1.42,1.52-3.47,2.28-6.15,2.28s-4.88-.72-6.24-2.17c-1.36-1.45-2.05-3.95-2.05-7.49,0-1.84.19-3.39.58-4.65.38-1.26.96-2.23,1.73-2.91.77-.68,1.63-1.17,2.6-1.46s2.11-.43,3.44-.43,2.44.14,3.39.41ZM116.69,2.33c-.59.43-1.04,1.21-1.36,2.34-.32,1.13-.47,2.7-.47,4.69,0,2.88.28,4.95.84,6.2s1.65,1.88,3.27,1.88c1.5,0,2.56-.65,3.18-1.94.62-1.3.93-3.34.93-6.14,0-1.98-.16-3.54-.49-4.69-.32-1.15-.77-1.93-1.33-2.35-.56-.42-1.3-.63-2.22-.63-.99,0-1.78.21-2.37.64Z"/>
    <path class="cls-2" d="M143.91,13.53c0,1.88-.55,3.28-1.64,4.21-1.09.93-2.56,1.39-4.4,1.39-2.4,0-4.19-.45-5.36-1.34-1.17-.89-1.75-2.43-1.75-4.62V2.56c0-.29-.03-.49-.08-.6s-.16-.18-.33-.22l-1.05-.28V.33h6.85v1.13l-1.05.28c-.17.03-.28.11-.33.22s-.08.31-.08.6v10.36c0,.65.04,1.21.13,1.69.09.48.25.94.49,1.39.24.45.61.8,1.11,1.04.5.24,1.14.36,1.9.36.46,0,.89-.06,1.29-.18.4-.12.79-.33,1.18-.63s.69-.75.91-1.34c.22-.6.33-1.32.33-2.17V2.56c0-.29-.03-.49-.08-.6s-.15-.18-.31-.22l-1.07-.28V.33h4.78v1.13l-1.05.28c-.17.03-.28.11-.33.22s-.08.31-.08.6v10.97Z"/>
    <path class="cls-2" d="M153.19,16.52c0,.29.03.49.08.6.05.11.16.18.33.22l1.05.28v1.13h-6.88v-1.13l1.07-.28c.15-.03.26-.11.31-.22.05-.11.08-.31.08-.6V2.86c0-.65-.09-1.01-.28-1.1l-1.18-.31V.33h7.21c.7,0,1.28.02,1.74.05.46.03,1.03.14,1.71.31.68.17,1.23.41,1.65.73.42.32.78.78,1.09,1.41s.46,1.37.46,2.24c0,2.64-1.27,4.31-3.81,5.01l4.07,6.52c.22.34.44.58.66.7.22.13.58.23,1.07.32v1.13h-4.76l-4.68-8.05h-1v5.83ZM153.19,9.2h1.59c1.02,0,1.76-.35,2.22-1.05.46-.7.69-1.6.69-2.71s-.23-2.02-.7-2.57c-.47-.55-1.23-.83-2.29-.83h-1.51v7.16Z"/>
    <path class="cls-2" d="M178.3,13.58l-.64,4.01c-1.84,1.02-3.75,1.53-5.73,1.53-5.47,0-8.21-3.05-8.21-9.15,0-3.43.69-5.94,2.07-7.56,1.38-1.61,3.59-2.42,6.62-2.42,2.1,0,3.95.19,5.55.56l.28,4.83-1.43.15-1.43-2.74c-.22-.39-.53-.68-.93-.86s-1.03-.27-1.88-.27c-1.67,0-2.86.63-3.58,1.88-.72,1.25-1.07,3.26-1.07,6.02s.34,4.61,1.02,5.91,1.78,1.94,3.3,1.94c1.33,0,2.28-.42,2.84-1.25l1.82-2.79,1.41.18Z"/>
    <path class="cls-2" d="M189.11,17.03c.48,0,.84-.08,1.07-.24s.46-.46.66-.88l1-2.05,1.41.15-.46,4.73h-12.99v-1.13l1.05-.28c.17-.03.28-.11.33-.22.05-.11.08-.31.08-.6V2.56c0-.29-.03-.49-.08-.6s-.16-.18-.33-.22l-1.05-.28V.33h12.71l.26,4.63-1.25.15-.97-1.79c-.17-.31-.31-.53-.41-.68s-.28-.28-.54-.41c-.26-.13-.57-.19-.95-.19h-3.43v6.57h1.87c.31,0,.53-.13.68-.38.14-.26.35-.89.6-1.92h1.41v6.21h-1.41c-.27-1.01-.48-1.64-.61-1.89-.14-.26-.35-.38-.64-.38h-1.89v6.78h3.89Z"/>
  </g>
</svg>