<?xml version="1.0" encoding="UTF-8"?>
<svg id="Layer_1" data-name="Layer 1" xmlns="http://www.w3.org/2000/svg" version="1.1" viewBox="0 0 2000 750.4">
  <defs>
    <style>
      .cls-1, .cls-2 {
        fill: #000;
      }

      .cls-1, .cls-2, .cls-3, .cls-4 {
        stroke-width: 0px;
      }

      .cls-2, .cls-5 {
        display: none;
      }

      .cls-3 {
        fill: #095ba5;
      }

      .cls-4 {
        fill: #fff;
      }
    </style>
  </defs>
  <g id="Layer_2" data-name="Layer 2" class="cls-5">
    <rect class="cls-1" width="2000" height="759.1"/>
  </g>
  <path class="cls-2" d="M292.6,328.2c3.9,0,6.9-.7,8.8-2s3.8-3.7,5.5-7.2l8.2-16.8,11.5,1.3-3.8,38.8h-106.6v-9.2l8.6-2.3c1.4-.3,2.3-.9,2.7-1.8.4-.9.6-2.5.6-4.9v-114.6c0-2.4-.2-4-.6-4.9s-1.3-1.5-2.7-1.8l-8.6-2.3v-9.2h104.3l2.1,38-10.3,1.3-8-14.7c-1.4-2.5-2.5-4.4-3.4-5.6s-2.3-2.3-4.4-3.4-4.7-1.6-7.8-1.6h-28.1v53.9h15.3c2.5,0,4.4-1,5.6-3.2,1.2-2.1,2.8-7.3,4.9-15.7h11.5v51h-11.5c-2.2-8.2-3.9-13.4-5-15.5-1.1-2.1-2.9-3.2-5.2-3.2h-15.5v55.6h31.9Z"/>
  <path class="cls-2" d="M487,200.4c-5.7,1.4-9.6,3.2-11.5,5.6-2,2.3-4.3,7.7-7.1,16.3l-39.9,120h-23.1l-44.9-128.4c-1.8-5.2-3.4-8.4-4.7-9.7s-4.3-2.5-8.9-3.8v-9.2h55.2v9.2c-3.8.8-6.2,1.7-7.4,2.6s-1.7,2.1-1.7,3.7.6,4.8,1.9,8.6l30.2,93,22.2-71.3c4.1-12.9,6.1-21.2,6.1-25s-.8-6.9-2.4-8.2-4.9-2.4-10-3.4v-9.2h46v9.2h0Z"/>
  <path class="cls-2" d="M585.2,327.2c3.9,0,6.8-.7,8.8-2s3.8-3.7,5.5-7.2l8.2-16.8,11.5,1.3-3.8,38.8h-106.6v-9.2l8.6-2.3c1.4-.3,2.3-.9,2.7-1.8.4-.9.6-2.5.6-4.9v-114.6c0-2.4-.2-4-.6-4.9s-1.3-1.5-2.7-1.8l-8.6-2.3v-9.2h104.3l2.1,38-10.3,1.3-8-14.7c-1.4-2.5-2.5-4.4-3.4-5.6s-2.3-2.3-4.4-3.4-4.7-1.6-7.8-1.6h-28.1v53.9h15.3c2.5,0,4.4-1,5.6-3.2,1.2-2.1,2.8-7.3,4.9-15.7h11.5v51h-11.5c-2.2-8.2-3.9-13.4-5-15.5-1.1-2.1-2.9-3.2-5.2-3.2h-15.5v55.6h31.9Z"/>
  <path class="cls-2" d="M669.1,317.9c0,4.1.3,7,1,8.8s2.2,3,4.6,3.6l6.3,1.7v9.2h-39.2v-9.2l6.1-1.7c2.4-.6,4-1.8,4.7-3.6.8-1.8,1.2-4.8,1.2-8.8v-108.1c0-3.5-.7-5.9-2.2-7.1s-4.7-2.4-9.5-3.4v-9.2h40.1l71.3,97.8v-79.5c0-2.4-.2-4-.6-4.9s-1.3-1.5-2.7-1.8l-8.6-2.3v-9.2h39.2v9.2l-8.6,2.3c-1.4.3-2.3.9-2.7,1.8s-.6,2.5-.6,4.9v132.8h-15.7l-83.9-113.7v90.4h0Z"/>
  <g class="cls-5">
    <g class="cls-5">
      <path class="cls-3" d="M218.6,559.5l-3.1-51.8,15.9-1.7,14.1,26.9c3.4,6.6,7.6,11.5,12.6,14.7,5,3.2,13,4.8,23.9,4.8s17.4-2.6,23.8-7.9,9.6-12.7,9.6-22.4-2.5-17.4-7.4-23.2c-4.9-5.8-14.7-12.9-29.4-21.2-23.4-13.2-39.3-24.2-47.7-33.1-8.4-8.9-12.6-20.2-12.6-34s5.8-29,17.4-37.9c11.6-8.9,28.7-13.3,51.4-13.3s40.3,2.1,58,6.2l3.4,49.8-15.9,1.7-13.3-25.8c-4.7-8.9-15.7-13.3-32.8-13.3s-28.3,7.6-28.3,22.9,2.6,13.9,7.9,19c5.3,5.1,18.3,13.3,39,24.6,21.7,11.9,36,22.4,42.9,31.6,6.9,9.2,10.3,20.5,10.3,34.1s-.5,8.5-1.6,13.2-3.3,9.9-6.8,15.7c-3.5,5.8-8,11.1-13.4,15.7s-13.2,8.5-23.2,11.6-21.4,4.7-34.2,4.7c-20.9,0-41.1-3.9-60.6-11.6h0Z"/>
      <path class="cls-3" d="M514.5,363.9c10.5,3,19.9,8.3,28.3,15.8,8.4,7.5,14.7,18.3,19,32.4,4.2,14,6.4,31.4,6.4,51.9,0,37.7-7.9,65-23.6,81.8s-38.4,25.2-68,25.2-54-8-69-24.1-22.6-43.7-22.6-82.9,2.1-37.5,6.4-51.5c4.2-14,10.6-24.7,19.1-32.3,8.5-7.5,18.1-12.9,28.7-16.1s23.4-4.8,38.1-4.8,27,1.5,37.5,4.5h0ZM451.1,385.2c-6.5,4.7-11.5,13.3-15,25.9-3.5,12.5-5.2,29.8-5.2,51.9,0,31.9,3.1,54.8,9.3,68.6s18.3,20.8,36.2,20.8,28.3-7.2,35.2-21.5c6.9-14.3,10.3-37,10.3-67.9s-1.8-39.2-5.4-51.9c-3.6-12.7-8.5-21.4-14.7-26-6.2-4.6-14.4-6.9-24.6-6.9s-19.7,2.4-26.2,7.1h0Z"/>
      <path class="cls-3" d="M695.4,547c4.3,0,7.5-.7,9.5-2s3.8-4,5.5-7.9l11-27.2,15.6,1.7-5.1,55.2h-141.2v-12.4l11.9-3.1c1.7-.4,2.8-1.2,3.4-2.4s.8-3.4.8-6.7v-154.5c0-3.2-.3-5.4-.8-6.7-.6-1.2-1.7-2-3.4-2.4l-11.9-3.1v-12.5h76.4v12.5l-11.9,3.1c-3,.8-4.5,3.8-4.5,9.1v159.3h44.7Z"/>
      <path class="cls-3" d="M915.8,509.1c0,20.8-6,36.3-18.1,46.6s-28.3,15.4-48.7,15.4-46.4-4.9-59.3-14.9c-12.9-9.9-19.4-26.9-19.4-51.1v-117.4c0-3.2-.3-5.4-.8-6.7-.6-1.2-1.8-2-3.7-2.4l-11.6-3.1v-12.5h75.8v12.5l-11.6,3.1c-1.9.4-3.1,1.2-3.7,2.4s-.8,3.4-.8,6.7v114.6c0,7.2.5,13.4,1.4,18.7.9,5.3,2.7,10.4,5.4,15.4s6.7,8.8,12.3,11.5,12.6,4,21.1,4,9.9-.7,14.3-2,8.8-3.6,13-6.9c4.2-3.3,7.6-8.2,10-14.9,2.5-6.6,3.7-14.6,3.7-24.1v-116.3c0-3.2-.3-5.4-.8-6.7-.6-1.2-1.7-2-3.4-2.4l-11.9-3.1v-12.5h52.9v12.5l-11.6,3.1c-1.9.4-3.1,1.2-3.7,2.4s-.8,3.4-.8,6.7v121.4h0Z"/>
      <path class="cls-3" d="M949,363.1h163.3l2.8,51.8-13.6,1.7-12.2-22.3c-2.4-4.5-4.6-7.7-6.5-9.5s-4.5-2.7-7.9-2.7h-22.4v160.2c0,3.2.3,5.4.8,6.7s1.8,2,3.7,2.4l11.6,3.1v12.4h-76.1v-12.4l11.9-3.1c1.7-.4,2.8-1.2,3.4-2.4s.8-3.4.8-6.7v-160.2h-22.3c-3.4,0-6,.9-7.9,2.7s-4.1,5-6.5,9.5l-12.2,22.3-13.6-1.7,2.8-51.8h0Z"/>
      <path class="cls-3" d="M1192.3,542.2c0,3.2.3,5.4.8,6.7s1.8,2,3.7,2.4l11.6,3.1v12.4h-76.1v-12.4l11.9-3.1c1.7-.4,2.8-1.2,3.4-2.4s.8-3.4.8-6.7v-154.5c0-3.2-.3-5.4-.8-6.7-.6-1.2-1.7-2-3.4-2.4l-11.9-3.1v-12.5h76.4v12.5l-11.9,3.1c-1.9.4-3.1,1.2-3.7,2.4-.6,1.2-.8,3.4-.8,6.7v154.5Z"/>
      <path class="cls-3" d="M1362.2,363.9c10.5,3,19.9,8.3,28.3,15.8s14.7,18.3,19,32.4c4.2,14,6.4,31.4,6.4,51.9,0,37.7-7.9,65-23.6,81.8s-38.4,25.2-68.1,25.2-53.9-8-69-24.1c-15.1-16-22.6-43.7-22.6-82.9s2.1-37.5,6.4-51.5,10.6-24.7,19.1-32.3,18.1-12.9,28.7-16.1c10.7-3.2,23.3-4.8,38.1-4.8s27,1.5,37.5,4.5h0ZM1298.8,385.2c-6.5,4.7-11.5,13.3-15,25.9-3.5,12.5-5.2,29.8-5.2,51.9,0,31.9,3.1,54.8,9.3,68.6s18.3,20.8,36.2,20.8,28.3-7.2,35.2-21.5,10.3-37,10.3-67.9-1.8-39.2-5.4-51.9c-3.6-12.7-8.5-21.4-14.7-26-6.2-4.6-14.4-6.9-24.6-6.9s-19.7,2.4-26.2,7.1h0Z"/>
      <path class="cls-3" d="M1473.9,535.4c0,5.5.5,9.4,1.4,11.9.9,2.4,3,4.1,6.2,4.8l8.5,2.3v12.4h-52.9v-12.4l8.2-2.3c3.2-.8,5.3-2.4,6.4-4.8,1-2.4,1.6-6.4,1.6-11.9v-145.7c0-4.7-1-7.9-3-9.6s-6.3-3.2-12.9-4.5v-12.5h54.1l96.2,131.9v-107.2c0-3.2-.3-5.4-.8-6.7-.6-1.2-1.8-2-3.7-2.4l-11.6-3.1v-12.5h52.9v12.5l-11.6,3.1c-1.9.4-3.1,1.2-3.7,2.4-.6,1.2-.8,3.4-.8,6.7v179.1h-21.2l-113.2-153.4v122h0Z"/>
      <path class="cls-3" d="M1650.7,559.5l-3.1-51.8,15.8-1.7,14.2,26.9c3.4,6.6,7.6,11.5,12.6,14.7,5,3.2,13,4.8,23.9,4.8s17.4-2.6,23.8-7.9,9.6-12.7,9.6-22.4-2.4-17.4-7.4-23.2c-4.9-5.8-14.7-12.9-29.4-21.2-23.4-13.2-39.3-24.2-47.7-33.1-8.4-8.9-12.6-20.2-12.6-34s5.8-29,17.4-37.9,28.7-13.3,51.4-13.3,40.3,2.1,58,6.2l3.4,49.8-15.8,1.7-13.3-25.8c-4.7-8.9-15.7-13.3-32.8-13.3s-28.3,7.6-28.3,22.9,2.6,13.9,7.9,19c5.3,5.1,18.3,13.3,39.1,24.6,21.7,11.9,36,22.4,42.9,31.6s10.3,20.5,10.3,34.1-.5,8.5-1.6,13.2-3.3,9.9-6.8,15.7c-3.5,5.8-8,11.1-13.4,15.7s-13.2,8.5-23.2,11.6-21.4,4.7-34.2,4.7c-20.9,0-41.1-3.9-60.6-11.6h0Z"/>
    </g>
  </g>
  <path class="cls-2" d="M799.6,190.1h121.1l2.1,38.4-10.1,1.3-9-16.6c-1.8-3.4-3.4-5.7-4.8-7s-3.4-2-5.9-2h-16.6v118.8c0,2.4.2,4,.6,4.9s1.3,1.5,2.7,1.8l8.6,2.3v9.2h-56.5v-9.2l8.8-2.3c1.3-.3,2.1-.9,2.5-1.8.4-.9.6-2.5.6-4.9v-118.8h-16.6c-2.5,0-4.5.7-5.9,2s-3,3.7-4.8,7l-9,16.6-10.1-1.3,2.1-38.4h0Z"/>
  <path class="cls-2" d="M985.8,336.8l-2.3-38.4,11.8-1.3,10.5,19.9c2.5,4.9,5.6,8.5,9.3,10.9,3.7,2.4,9.6,3.6,17.7,3.6s12.9-2,17.6-5.9,7.1-9.4,7.1-16.6-1.8-12.9-5.5-17.2-10.9-9.6-21.8-15.7c-17.3-9.8-29.1-18-35.4-24.5-6.2-6.6-9.3-15-9.3-25.2s4.3-21.5,12.9-28.1c8.6-6.6,21.3-9.9,38.1-9.9s29.9,1.5,43,4.6l2.5,36.9-11.8,1.3-9.9-19.1c-3.5-6.6-11.6-9.9-24.3-9.9s-21,5.7-21,17,2,10.3,5.9,14.1c3.9,3.8,13.6,9.9,29,18.3,16.1,8.8,26.7,16.6,31.8,23.4,5.1,6.8,7.7,15.2,7.7,25.3s-.4,6.3-1.2,9.8-2.4,7.3-5,11.7c-2.6,4.3-5.9,8.2-10,11.7-4.1,3.4-9.8,6.3-17.2,8.6-7.4,2.3-15.9,3.5-25.4,3.5-15.5,0-30.5-2.9-44.9-8.6h0Z"/>
  <path class="cls-2" d="M1209.3,191.8c7.8,2.2,14.8,6.2,21,11.8,6.2,5.6,10.9,13.6,14.1,24,3.2,10.4,4.7,23.3,4.7,38.5,0,28-5.8,48.2-17.5,60.7-11.7,12.5-28.5,18.7-50.5,18.7s-40-6-51.2-17.8-16.8-32.4-16.8-61.5,1.6-27.8,4.7-38.2,7.9-18.3,14.2-23.9c6.3-5.6,13.4-9.6,21.3-12s17.3-3.6,28.2-3.6,20,1.1,27.8,3.4h0ZM1162.3,207.5c-4.8,3.5-8.5,9.9-11.1,19.2s-3.9,22.1-3.9,38.5c0,23.6,2.3,40.6,6.9,50.9s13.6,15.4,26.9,15.4,21-5.3,26.1-16,7.7-27.4,7.7-50.4-1.3-29.1-4-38.5c-2.7-9.4-6.3-15.9-10.9-19.3-4.6-3.4-10.7-5.1-18.3-5.1s-14.6,1.8-19.4,5.2Z"/>
  <path class="cls-2" d="M1385.7,299.4c0,15.4-4.5,26.9-13.4,34.5-8.9,7.6-21,11.4-36.1,11.4s-34.4-3.7-44-11c-9.6-7.3-14.4-20-14.4-37.9v-87.1c0-2.4-.2-4-.6-4.9s-1.3-1.5-2.7-1.8l-8.6-2.3v-9.2h56.2v9.2l-8.6,2.3c-1.4.3-2.3.9-2.7,1.8s-.6,2.5-.6,4.9v85c0,5.3.3,9.9,1.1,13.8.7,3.9,2,7.7,4,11.4s5,6.5,9.1,8.5,9.3,2.9,15.6,2.9,7.3-.5,10.6-1.5c3.3-1,6.5-2.7,9.7-5.1,3.2-2.5,5.6-6.1,7.4-11s2.7-10.8,2.7-17.8v-86.2c0-2.4-.2-4-.6-4.9s-1.3-1.5-2.5-1.8l-8.8-2.3v-9.2h39.2v9.2l-8.6,2.3c-1.4.3-2.3.9-2.7,1.8s-.6,2.5-.6,4.9v90h0Z"/>
  <path class="cls-2" d="M1461.9,324c0,2.4.2,4,.6,4.9s1.3,1.5,2.7,1.8l8.6,2.3v9.2h-56.4v-9.2l8.8-2.3c1.3-.3,2.1-.9,2.5-1.8.4-.9.6-2.5.6-4.9v-112.1c0-5.3-.8-8.3-2.3-9l-9.7-2.5v-9.2h59.2c5.7,0,10.5.1,14.3.4,3.8.3,8.5,1.1,14.1,2.5,5.6,1.4,10.1,3.4,13.5,6,3.4,2.6,6.4,6.4,8.9,11.5s3.8,11.2,3.8,18.4c0,21.7-10.4,35.4-31.3,41.1l33.4,53.5c1.8,2.8,3.6,4.7,5.5,5.8,1.8,1,4.8,1.9,8.8,2.6v9.2h-39l-38.4-66.1h-8.2v47.8h0ZM1461.9,264h13c8.4,0,14.5-2.9,18.3-8.6,3.8-5.7,5.7-13.2,5.7-22.2s-1.9-16.5-5.8-21.1c-3.8-4.5-10.1-6.8-18.8-6.8h-12.4v58.8h0Z"/>
  <path class="cls-2" d="M1668,299.9l-5.2,33c-15.1,8.4-30.8,12.6-47,12.6-44.9,0-67.4-25-67.4-75.1s5.7-48.8,17-62c11.3-13.2,29.4-19.8,54.3-19.8s32.4,1.5,45.5,4.6l2.3,39.7-11.8,1.3-11.8-22.5c-1.8-3.2-4.4-5.6-7.7-7s-8.4-2.2-15.4-2.2c-13.7,0-23.5,5.1-29.4,15.4-5.9,10.3-8.8,26.8-8.8,49.4s2.8,37.8,8.4,48.5c5.6,10.6,14.6,16,27.1,16s18.7-3.4,23.3-10.3l14.9-22.9,11.5,1.5h0Z"/>
  <path class="cls-2" d="M1756.7,328.2c3.9,0,6.8-.7,8.8-2s3.8-3.7,5.5-7.2l8.2-16.8,11.5,1.3-3.8,38.8h-106.6v-9.2l8.6-2.3c1.4-.3,2.3-.9,2.7-1.8.4-.9.6-2.5.6-4.9v-114.6c0-2.4-.2-4-.6-4.9s-1.3-1.5-2.7-1.8l-8.6-2.3v-9.2h104.3l2.1,38-10.3,1.3-8-14.7c-1.4-2.5-2.5-4.4-3.4-5.6s-2.3-2.3-4.4-3.4-4.7-1.6-7.8-1.6h-28.1v53.9h15.3c2.5,0,4.4-1,5.6-3.2,1.2-2.1,2.8-7.3,4.9-15.7h11.5v51h-11.5c-2.2-8.2-3.9-13.4-5-15.5-1.1-2.1-2.9-3.2-5.2-3.2h-15.5v55.6h31.9Z"/>
  <g>
    <path class="cls-4" d="M217.2,566l-3.1-51.7,15.8-1.7,14.1,26.8c3.4,6.6,7.6,11.5,12.6,14.7s13,4.8,23.9,4.8,17.3-2.6,23.7-7.9c6.4-5.3,9.6-12.7,9.6-22.3s-2.5-17.3-7.4-23.2c-4.9-5.8-14.7-12.9-29.4-21.2-23.4-13.2-39.2-24.2-47.6-33.1-8.4-8.9-12.6-20.2-12.6-33.9s5.8-29,17.4-37.9c11.6-8.9,28.7-13.3,51.3-13.3s40.2,2.1,57.9,6.2l3.4,49.7-15.8,1.7-13.3-25.7c-4.7-8.9-15.6-13.3-32.8-13.3s-28.3,7.6-28.3,22.9,2.6,13.8,7.9,18.9,18.3,13.3,39,24.6c21.7,11.9,35.9,22.4,42.8,31.5,6.9,9.1,10.3,20.5,10.3,34.1s-.5,8.5-1.5,13.1c-1,4.6-3.3,9.8-6.8,15.7-3.5,5.8-8,11.1-13.4,15.7-5.5,4.6-13.2,8.5-23.2,11.6s-21.4,4.7-34.2,4.7c-20.9,0-41.1-3.9-60.5-11.6h0Z"/>
    <path class="cls-4" d="M512.7,370.7c10.5,3,19.9,8.3,28.3,15.8,8.4,7.5,14.7,18.3,18.9,32.4s6.4,31.3,6.4,51.9c0,37.7-7.9,64.9-23.6,81.7s-38.4,25.2-68,25.2-53.9-8-69-24c-15.1-16-22.6-43.6-22.6-82.8s2.1-37.5,6.4-51.4,10.6-24.7,19.1-32.2c8.5-7.5,18-12.9,28.7-16.1s23.3-4.8,38-4.8,27,1.5,37.5,4.5h0ZM449.4,391.9c-6.5,4.7-11.5,13.3-15,25.9-3.5,12.5-5.2,29.8-5.2,51.9,0,31.8,3.1,54.7,9.3,68.5,6.2,13.8,18.3,20.8,36.2,20.8s28.3-7.2,35.2-21.5c6.9-14.3,10.3-36.9,10.3-67.8s-1.8-39.2-5.4-51.9c-3.6-12.7-8.5-21.4-14.7-26-6.2-4.6-14.4-6.9-24.6-6.9s-19.6,2.3-26.1,7.1h0Z"/>
    <path class="cls-4" d="M693.5,553.6c4.3,0,7.5-.7,9.5-2s3.8-4,5.5-7.9l11-27.1,15.5,1.7-5.1,55.1h-141v-12.4l11.9-3.1c1.7-.4,2.8-1.2,3.4-2.4s.8-3.4.8-6.6v-154.3c0-3.2-.3-5.4-.8-6.6-.6-1.2-1.7-2-3.4-2.4l-11.9-3.1v-12.4h76.3v12.4l-11.9,3.1c-3,.8-4.5,3.8-4.5,9v159.1h44.7Z"/>
    <path class="cls-4" d="M913.7,515.7c0,20.7-6,36.2-18.1,46.5s-28.3,15.4-48.6,15.4-46.3-4.9-59.2-14.8c-12.9-9.9-19.4-26.9-19.4-51v-117.3c0-3.2-.3-5.4-.8-6.6-.6-1.2-1.8-2-3.7-2.4l-11.6-3.1v-12.4h75.8v12.4l-11.6,3.1c-1.9.4-3.1,1.2-3.7,2.4-.6,1.2-.8,3.4-.8,6.6v114.5c0,7.2.5,13.4,1.4,18.7.9,5.3,2.7,10.4,5.4,15.4s6.7,8.8,12.3,11.4c5.6,2.6,12.6,4,21.1,4s9.8-.7,14.3-2c4.4-1.3,8.8-3.6,13-6.9,4.2-3.3,7.6-8.2,10-14.8,2.5-6.6,3.7-14.6,3.7-24v-116.2c0-3.2-.3-5.4-.8-6.6-.6-1.2-1.7-2-3.4-2.4l-11.9-3.1v-12.4h52.8v12.4l-11.6,3.1c-1.9.4-3.1,1.2-3.7,2.4-.6,1.2-.8,3.4-.8,6.6v121.2h0Z"/>
    <path class="cls-4" d="M946.7,369.9h163.1l2.8,51.7-13.6,1.7-12.2-22.3c-2.4-4.5-4.6-7.7-6.5-9.5s-4.5-2.7-7.9-2.7h-22.3v160c0,3.2.3,5.4.8,6.6s1.8,2,3.7,2.4l11.6,3.1v12.4h-76v-12.4l11.9-3.1c1.7-.4,2.8-1.2,3.4-2.4s.8-3.4.8-6.6v-160h-22.3c-3.4,0-6,.9-7.9,2.7s-4,5-6.5,9.5l-12.2,22.3-13.6-1.7,2.8-51.7h0Z"/>
    <path class="cls-4" d="M1189.8,548.8c0,3.2.3,5.4.8,6.6s1.8,2,3.7,2.4l11.6,3.1v12.4h-76v-12.4l11.9-3.1c1.7-.4,2.8-1.2,3.4-2.4s.8-3.4.8-6.6v-154.3c0-3.2-.3-5.4-.8-6.6-.6-1.2-1.7-2-3.4-2.4l-11.9-3.1v-12.4h76.3v12.4l-11.9,3.1c-1.9.4-3.1,1.2-3.7,2.4-.6,1.2-.8,3.4-.8,6.6v154.3h0Z"/>
    <path class="cls-4" d="M1359.5,370.7c10.5,3,19.9,8.3,28.3,15.8,8.4,7.5,14.7,18.3,18.9,32.4s6.4,31.3,6.4,51.9c0,37.7-7.9,64.9-23.6,81.7s-38.4,25.2-68,25.2-53.9-8-69-24c-15.1-16-22.6-43.6-22.6-82.8s2.1-37.5,6.4-51.4,10.6-24.7,19.1-32.2c8.5-7.5,18-12.9,28.7-16.1,10.7-3.2,23.3-4.8,38-4.8s27,1.5,37.4,4.5h0ZM1296.2,391.9c-6.5,4.7-11.5,13.3-15,25.9-3.5,12.5-5.2,29.8-5.2,51.9,0,31.8,3.1,54.7,9.3,68.5s18.3,20.8,36.2,20.8,28.3-7.2,35.2-21.5,10.3-36.9,10.3-67.8-1.8-39.2-5.4-51.9c-3.6-12.7-8.5-21.4-14.7-26-6.2-4.6-14.4-6.9-24.6-6.9s-19.6,2.3-26.1,7.1h0Z"/>
    <path class="cls-4" d="M1471,542c0,5.5.5,9.4,1.4,11.9.9,2.4,3,4.1,6.2,4.8l8.5,2.3v12.4h-52.8v-12.4l8.2-2.3c3.2-.8,5.3-2.4,6.4-4.8,1-2.4,1.6-6.4,1.6-11.9v-145.6c0-4.7-1-7.9-3-9.6s-6.3-3.2-12.9-4.5v-12.4h54l96.1,131.7v-107.1c0-3.2-.3-5.4-.8-6.6-.6-1.2-1.8-2-3.7-2.4l-11.6-3.1v-12.4h52.8v12.4l-11.6,3.1c-1.9.4-3.1,1.2-3.7,2.4-.6,1.2-.8,3.4-.8,6.6v178.9h-21.2l-113.1-153.2v121.8h0Z"/>
    <path class="cls-4" d="M1647.7,566l-3.1-51.7,15.8-1.7,14.1,26.8c3.4,6.6,7.6,11.5,12.6,14.7s12.9,4.8,23.9,4.8,17.3-2.6,23.7-7.9c6.4-5.3,9.6-12.7,9.6-22.3s-2.4-17.3-7.3-23.2c-4.9-5.8-14.7-12.9-29.4-21.2-23.4-13.2-39.2-24.2-47.6-33.1-8.4-8.9-12.6-20.2-12.6-33.9s5.8-29,17.4-37.9c11.6-8.9,28.7-13.3,51.3-13.3s40.2,2.1,57.9,6.2l3.4,49.7-15.8,1.7-13.3-25.7c-4.7-8.9-15.6-13.3-32.8-13.3s-28.3,7.6-28.3,22.9,2.6,13.8,7.9,18.9c5.3,5.1,18.3,13.3,39,24.6,21.7,11.9,35.9,22.4,42.8,31.5,6.9,9.1,10.3,20.5,10.3,34.1s-.5,8.5-1.6,13.1c-1,4.6-3.3,9.8-6.8,15.7-3.5,5.8-8,11.1-13.4,15.7-5.5,4.6-13.2,8.5-23.2,11.6s-21.4,4.7-34.2,4.7c-20.9,0-41.1-3.9-60.5-11.6h0Z"/>
  </g>
  <g>
    <path class="cls-4" d="M297.1,334.2c3.9,0,6.8-.7,8.7-2s3.7-3.7,5.4-7.1l8.1-16.5,11.4,1.2-3.7,38.2h-105v-9.1l8.5-2.3c1.4-.3,2.3-.9,2.7-1.8.4-.9.6-2.5.6-4.9v-112.8c0-2.3-.2-4-.6-4.9s-1.3-1.5-2.7-1.8l-8.5-2.3v-9.1h102.7l2.1,37.4-10.1,1.2-7.9-14.5c-1.4-2.5-2.5-4.3-3.3-5.5s-2.3-2.3-4.3-3.3c-2.1-1-4.6-1.5-7.6-1.5h-27.7v53.1h15.1c2.5,0,4.3-1,5.5-3.1,1.2-2.1,2.8-7.2,4.9-15.5h11.4v50.2h-11.4c-2.2-8.1-3.9-13.2-5-15.3s-2.8-3.1-5.2-3.1h-15.3v54.8h31.4,0Z"/>
    <path class="cls-4" d="M488.4,208.4c-5.6,1.4-9.4,3.2-11.4,5.5s-4.3,7.6-7,16l-39.3,118.2h-22.7l-44.2-126.5c-1.8-5.1-3.3-8.3-4.6-9.5s-4.2-2.5-8.8-3.7v-9.1h54.3v9.1c-3.7.8-6.1,1.7-7.2,2.6-1.1.9-1.6,2.1-1.6,3.6s.6,4.8,1.9,8.5l29.8,91.5,21.9-70.2c4-12.7,6-20.9,6-24.6s-.8-6.8-2.4-8.1-4.9-2.3-9.8-3.3v-9.1h45.2v9.1h0Z"/>
    <path class="cls-4" d="M585.1,334.2c3.9,0,6.8-.7,8.7-2s3.7-3.7,5.4-7.1l8.1-16.5,11.4,1.2-3.7,38.2h-105v-9.1l8.5-2.3c1.4-.3,2.3-.9,2.7-1.8.4-.9.6-2.5.6-4.9v-112.8c0-2.3-.2-4-.6-4.9s-1.3-1.5-2.7-1.8l-8.5-2.3v-9.1h102.7l2.1,37.4-10.1,1.2-7.8-14.5c-1.4-2.5-2.5-4.3-3.3-5.5s-2.3-2.3-4.3-3.3c-2.1-1-4.6-1.5-7.6-1.5h-27.7v53.1h15.1c2.5,0,4.3-1,5.5-3.1,1.2-2.1,2.8-7.2,4.9-15.5h11.4v50.2h-11.4c-2.2-8.1-3.9-13.2-5-15.3-1.1-2.1-2.8-3.1-5.2-3.1h-15.3v54.8h31.4,0Z"/>
    <path class="cls-4" d="M667.8,325.2c0,4,.3,6.9,1,8.7s2.2,3,4.5,3.5l6.2,1.7v9.1h-38.6v-9.1l6-1.7c2.3-.5,3.9-1.7,4.7-3.5.8-1.8,1.1-4.7,1.1-8.7v-106.4c0-3.4-.7-5.8-2.2-7s-4.6-2.3-9.4-3.3v-9.1h39.5l70.2,96.3v-78.3c0-2.3-.2-4-.6-4.9-.4-.9-1.3-1.5-2.7-1.8l-8.5-2.3v-9.1h38.6v9.1l-8.5,2.3c-1.4.3-2.3.9-2.7,1.8s-.6,2.5-.6,4.9v130.8h-15.5l-82.7-112v89h0Z"/>
    <path class="cls-4" d="M796.3,199.3h119.2l2.1,37.8-9.9,1.2-8.9-16.3c-1.8-3.3-3.4-5.6-4.8-6.9-1.4-1.3-3.3-2-5.8-2h-16.3v117c0,2.3.2,4,.6,4.9.4.9,1.3,1.5,2.7,1.8l8.5,2.3v9.1h-55.6v-9.1l8.7-2.3c1.2-.3,2.1-.9,2.5-1.8s.6-2.5.6-4.9v-117h-16.3c-2.5,0-4.4.7-5.8,2s-3,3.6-4.8,6.9l-8.9,16.3-9.9-1.2,2.1-37.8h0Z"/>
    <path class="cls-4" d="M979.5,342.7l-2.3-37.8,11.6-1.2,10.3,19.6c2.5,4.8,5.5,8.4,9.2,10.7,3.7,2.3,9.5,3.5,17.5,3.5s12.7-1.9,17.4-5.8c4.7-3.9,7-9.3,7-16.3s-1.8-12.7-5.4-16.9-10.7-9.4-21.5-15.5c-17.1-9.6-28.7-17.7-34.8-24.2s-9.2-14.7-9.2-24.8,4.2-21.2,12.7-27.7c8.5-6.5,21-9.7,37.5-9.7s29.4,1.5,42.4,4.5l2.5,36.4-11.6,1.2-9.7-18.8c-3.4-6.5-11.4-9.7-24-9.7s-20.7,5.6-20.7,16.7,1.9,10.1,5.8,13.8c3.9,3.7,13.4,9.7,28.5,18,15.8,8.7,26.3,16.4,31.3,23,5,6.7,7.5,15,7.5,24.9s-.4,6.2-1.1,9.6-2.4,7.2-5,11.5c-2.6,4.3-5.8,8.1-9.8,11.5-4,3.4-9.6,6.2-16.9,8.5-7.3,2.3-15.6,3.4-25,3.4-15.3,0-30-2.8-44.2-8.5h0Z"/>
    <path class="cls-4" d="M1199.7,199.9c7.7,2.2,14.5,6.1,20.7,11.6s10.7,13.4,13.8,23.7,4.7,22.9,4.7,37.9c0,27.5-5.8,47.5-17.2,59.7s-28.1,18.4-49.7,18.4-39.4-5.8-50.4-17.6-16.5-31.9-16.5-60.5,1.6-27.4,4.7-37.6,7.8-18,13.9-23.5,13.2-9.4,21-11.8,17.1-3.5,27.8-3.5,19.7,1.1,27.4,3.3h0ZM1153.4,215.4c-4.8,3.4-8.4,9.8-10.9,18.9-2.6,9.2-3.8,21.8-3.8,37.9,0,23.3,2.3,40,6.8,50.1s13.4,15.2,26.4,15.2,20.7-5.2,25.7-15.7c5-10.5,7.5-27,7.5-49.6s-1.3-28.6-3.9-37.9-6.2-15.6-10.7-19c-4.6-3.4-10.5-5.1-18-5.1s-14.4,1.7-19.1,5.2h0Z"/>
    <path class="cls-4" d="M1373.4,305.9c0,15.2-4.4,26.5-13.2,34-8.8,7.5-20.7,11.3-35.5,11.3s-33.8-3.6-43.3-10.8c-9.4-7.2-14.2-19.7-14.2-37.3v-85.8c0-2.3-.2-4-.6-4.9s-1.3-1.5-2.7-1.8l-8.5-2.3v-9.1h55.4v9.1l-8.5,2.3c-1.4.3-2.3.9-2.7,1.8s-.6,2.5-.6,4.9v83.7c0,5.2.3,9.8,1,13.6.7,3.9,2,7.6,3.9,11.3s4.9,6.4,9,8.4c4.1,1.9,9.2,2.9,15.4,2.9s7.2-.5,10.4-1.5c3.2-1,6.4-2.7,9.5-5.1s5.5-6,7.3-10.8c1.8-4.8,2.7-10.7,2.7-17.6v-84.9c0-2.3-.2-4-.6-4.9s-1.2-1.5-2.5-1.8l-8.7-2.3v-9.1h38.6v9.1l-8.5,2.3c-1.4.3-2.3.9-2.7,1.8s-.6,2.5-.6,4.9v88.6h0Z"/>
    <path class="cls-4" d="M1448.4,330.1c0,2.3.2,4,.6,4.9.4.9,1.3,1.5,2.7,1.8l8.5,2.3v9.1h-55.6v-9.1l8.7-2.3c1.2-.3,2.1-.9,2.5-1.8s.6-2.5.6-4.9v-110.3c0-5.2-.8-8.2-2.3-8.9l-9.5-2.5v-9.1h58.3c5.7,0,10.3.1,14.1.4,3.7.3,8.3,1.1,13.8,2.5s9.9,3.3,13.3,5.9,6.3,6.3,8.8,11.4,3.7,11,3.7,18.1c0,21.3-10.3,34.8-30.8,40.5l32.8,52.7c1.8,2.8,3.6,4.7,5.4,5.7,1.8,1,4.7,1.9,8.7,2.6v9.1h-38.4l-37.8-65.1h-8.1v47.1h0ZM1448.4,271h12.8c8.3,0,14.3-2.8,18-8.5,3.7-5.7,5.6-13,5.6-21.9s-1.9-16.3-5.7-20.8c-3.8-4.5-9.9-6.7-18.5-6.7h-12.2v57.8h0Z"/>
    <path class="cls-4" d="M1651.3,306.4l-5.2,32.4c-14.9,8.3-30.3,12.4-46.3,12.4-44.2,0-66.3-24.7-66.3-74s5.6-48,16.7-61.1,29-19.5,53.5-19.5,31.9,1.5,44.8,4.5l2.3,39-11.6,1.2-11.6-22.1c-1.8-3.2-4.3-5.5-7.5-6.9s-8.3-2.2-15.2-2.2c-13.5,0-23.1,5.1-28.9,15.2-5.8,10.1-8.7,26.3-8.7,48.7s2.8,37.3,8.3,47.7,14.4,15.7,26.7,15.7,18.4-3.4,22.9-10.1l14.7-22.5,11.4,1.5h0Z"/>
    <path class="cls-4" d="M1738.7,334.2c3.9,0,6.8-.7,8.7-2s3.7-3.7,5.4-7.1l8.1-16.5,11.4,1.2-3.7,38.2h-105v-9.1l8.5-2.3c1.4-.3,2.3-.9,2.7-1.8.4-.9.6-2.5.6-4.9v-112.8c0-2.3-.2-4-.6-4.9s-1.3-1.5-2.7-1.8l-8.5-2.3v-9.1h102.7l2.1,37.4-10.1,1.2-7.8-14.5c-1.4-2.5-2.5-4.3-3.3-5.5s-2.3-2.3-4.3-3.3c-2.1-1-4.6-1.5-7.6-1.5h-27.7v53.1h15.1c2.5,0,4.3-1,5.5-3.1,1.2-2.1,2.8-7.2,4.9-15.5h11.4v50.2h-11.4c-2.2-8.1-3.9-13.2-5-15.3s-2.8-3.1-5.2-3.1h-15.3v54.8h31.4,0Z"/>
  </g>
</svg>