<?xml version="1.0" encoding="UTF-8"?>
<svg id="Layer_1" data-name="Layer 1" xmlns="http://www.w3.org/2000/svg" version="1.1" viewBox="0 0 2000 2000">
  <defs>
    <style>
      .cls-1 {
        fill: none;
        stroke: #fd069c;
        stroke-miterlimit: 10;
        stroke-width: 2px;
      }

      .cls-1, .cls-2, .cls-3, .cls-4 {
        display: none;
      }

      .cls-5 {
        fill: #095ba5;
      }

      .cls-5, .cls-6, .cls-2, .cls-3, .cls-7 {
        stroke-width: 0px;
      }

      .cls-6, .cls-2 {
        fill: #000;
      }

      .cls-3 {
        fill: #fd069c;
      }

      .cls-7 {
        fill: #fff;
      }
    </style>
  </defs>
  <g id="Layer_2" data-name="Layer 2" class="cls-4">
    <rect class="cls-6" width="2000" height="2000"/>
  </g>
  <path class="cls-2" d="M292.63,909.25c3.92,0,6.85-.66,8.81-1.99s3.78-3.74,5.46-7.24l8.18-16.79,11.54,1.26-3.78,38.82h-106.6v-9.23l8.6-2.31c1.4-.28,2.31-.87,2.73-1.78.42-.91.63-2.55.63-4.93v-114.58c0-2.38-.21-4.02-.63-4.93s-1.33-1.5-2.73-1.78l-8.6-2.31v-9.23h104.29l2.1,37.98-10.28,1.26-7.97-14.69c-1.4-2.52-2.52-4.37-3.36-5.56s-2.31-2.31-4.41-3.36c-2.1-1.05-4.69-1.57-7.76-1.57h-28.12v53.93h15.32c2.52,0,4.37-1.05,5.56-3.15,1.19-2.1,2.83-7.34,4.93-15.74h11.54v50.99h-11.54c-2.24-8.25-3.92-13.43-5.04-15.53-1.12-2.1-2.87-3.15-5.25-3.15h-15.53v55.61h31.9Z"/>
  <path class="cls-2" d="M486.95,781.45c-5.74,1.4-9.58,3.25-11.54,5.56-1.96,2.31-4.34,7.73-7.14,16.26l-39.87,120.03h-23.08l-44.91-128.43c-1.82-5.18-3.39-8.39-4.72-9.65s-4.3-2.52-8.92-3.78v-9.23h55.19v9.23c-3.78.84-6.23,1.71-7.35,2.62-1.12.91-1.68,2.13-1.68,3.67,0,1.96.63,4.83,1.89,8.6l30.22,92.96,22.24-71.35c4.06-12.87,6.08-21.19,6.08-24.97,0-4.2-.8-6.92-2.41-8.18s-4.93-2.38-9.97-3.36v-9.23h45.96v9.23Z"/>
  <path class="cls-2" d="M585.16,908.24c3.92,0,6.85-.66,8.81-1.99s3.78-3.74,5.46-7.24l8.18-16.79,11.54,1.26-3.78,38.82h-106.6v-9.23l8.6-2.31c1.4-.28,2.31-.87,2.73-1.78.42-.91.63-2.55.63-4.93v-114.58c0-2.38-.21-4.02-.63-4.93s-1.33-1.5-2.73-1.78l-8.6-2.31v-9.23h104.29l2.1,37.98-10.28,1.26-7.97-14.69c-1.4-2.52-2.52-4.37-3.36-5.56s-2.31-2.31-4.41-3.36c-2.1-1.05-4.69-1.57-7.76-1.57h-28.12v53.93h15.32c2.52,0,4.37-1.05,5.56-3.15,1.19-2.1,2.83-7.34,4.93-15.74h11.54v50.99h-11.54c-2.24-8.25-3.92-13.43-5.04-15.53-1.12-2.1-2.87-3.15-5.25-3.15h-15.53v55.61h31.9Z"/>
  <path class="cls-2" d="M669.1,899c0,4.06.35,6.99,1.05,8.81.7,1.82,2.24,3.01,4.62,3.57l6.3,1.68v9.23h-39.24v-9.23l6.08-1.68c2.38-.56,3.95-1.75,4.72-3.57.77-1.82,1.15-4.76,1.15-8.81v-108.07c0-3.5-.73-5.88-2.2-7.13s-4.65-2.38-9.55-3.36v-9.23h40.08l71.35,97.79v-79.53c0-2.38-.21-4.02-.63-4.93-.42-.91-1.33-1.5-2.73-1.78l-8.6-2.31v-9.23h39.24v9.23l-8.6,2.31c-1.4.28-2.31.87-2.73,1.78s-.63,2.55-.63,4.93v132.83h-15.74l-83.94-113.74v90.44Z"/>
  <g class="cls-4">
    <g>
      <path class="cls-5" d="M218.61,1140.53l-3.11-51.78,15.85-1.7,14.15,26.88c3.4,6.6,7.59,11.51,12.59,14.71,5,3.21,12.97,4.81,23.91,4.81,9.43,0,17.36-2.64,23.77-7.92,6.41-5.28,9.62-12.73,9.62-22.36s-2.45-17.36-7.36-23.2c-4.9-5.85-14.71-12.92-29.43-21.22-23.39-13.2-39.29-24.24-47.68-33.11-8.39-8.87-12.59-20.19-12.59-33.96,0-16.41,5.8-29.05,17.4-37.92,11.6-8.87,28.72-13.3,51.36-13.3,20.94,0,40.28,2.07,58.01,6.23l3.4,49.8-15.85,1.7-13.3-25.75c-4.72-8.87-15.66-13.3-32.82-13.3-18.86,0-28.3,7.64-28.3,22.92,0,7.55,2.64,13.86,7.92,18.96,5.28,5.09,18.3,13.3,39.05,24.62,21.69,11.88,35.98,22.4,42.87,31.55,6.89,9.15,10.33,20.52,10.33,34.1,0,4.15-.52,8.54-1.56,13.16-1.04,4.62-3.3,9.86-6.79,15.7-3.49,5.85-7.97,11.08-13.44,15.7-5.47,4.62-13.2,8.49-23.2,11.6-10,3.11-21.41,4.67-34.24,4.67-20.94,0-41.12-3.87-60.56-11.6Z"/>
      <path class="cls-5" d="M514.46,945c10.47,3.02,19.9,8.3,28.3,15.85,8.39,7.55,14.71,18.35,18.96,32.4,4.24,14.05,6.37,31.36,6.37,51.92,0,37.73-7.88,64.99-23.63,81.78-15.75,16.79-38.44,25.18-68.05,25.18s-53.95-8.02-69.04-24.05c-15.09-16.03-22.64-43.67-22.64-82.91,0-20.37,2.12-37.54,6.37-51.5,4.24-13.96,10.61-24.71,19.1-32.26,8.49-7.55,18.06-12.92,28.72-16.13,10.66-3.21,23.35-4.81,38.06-4.81s27.02,1.51,37.49,4.53ZM451.07,966.22c-6.51,4.72-11.51,13.35-15,25.89-3.49,12.54-5.24,29.85-5.24,51.92,0,31.88,3.11,54.75,9.34,68.62,6.23,13.87,18.3,20.8,36.22,20.8,16.6,0,28.34-7.17,35.23-21.51,6.89-14.34,10.33-36.97,10.33-67.91,0-21.88-1.79-39.19-5.38-51.92-3.58-12.73-8.49-21.41-14.71-26.03-6.23-4.62-14.43-6.93-24.62-6.93-10.94,0-19.67,2.36-26.17,7.07Z"/>
      <path class="cls-5" d="M695.41,1128.08c4.34,0,7.5-.66,9.48-1.98,1.98-1.32,3.82-3.96,5.52-7.92l11.04-27.17,15.56,1.7-5.09,55.18h-141.2v-12.45l11.88-3.11c1.7-.38,2.83-1.18,3.4-2.41.57-1.23.85-3.44.85-6.65v-154.5c0-3.21-.28-5.42-.85-6.65-.57-1.23-1.7-2.03-3.4-2.41l-11.88-3.11v-12.45h76.4v12.45l-11.89,3.11c-3.02.75-4.53,3.77-4.53,9.06v159.31h44.71Z"/>
      <path class="cls-5" d="M915.84,1090.16c0,20.75-6.04,36.27-18.11,46.55-12.07,10.28-28.3,15.42-48.67,15.42-26.6,0-46.36-4.95-59.28-14.86-12.92-9.9-19.38-26.93-19.38-51.08v-117.43c0-3.21-.28-5.42-.85-6.65-.57-1.23-1.79-2.03-3.68-2.41l-11.6-3.11v-12.45h75.84v12.45l-11.6,3.11c-1.89.38-3.11,1.18-3.68,2.41-.57,1.23-.85,3.44-.85,6.65v114.6c0,7.17.47,13.39,1.41,18.68.94,5.28,2.74,10.42,5.38,15.42,2.64,5,6.74,8.82,12.31,11.46,5.57,2.64,12.59,3.96,21.08,3.96,5.09,0,9.86-.66,14.29-1.98,4.43-1.32,8.77-3.63,13.02-6.93,4.24-3.3,7.59-8.25,10.05-14.86,2.45-6.6,3.68-14.62,3.68-24.05v-116.3c0-3.21-.28-5.42-.85-6.65-.57-1.23-1.7-2.03-3.4-2.41l-11.89-3.11v-12.45h52.92v12.45l-11.6,3.11c-1.89.38-3.11,1.18-3.68,2.41-.57,1.23-.85,3.44-.85,6.65v121.39Z"/>
      <path class="cls-5" d="M948.95,944.15h163.27l2.83,51.78-13.58,1.7-12.17-22.35c-2.45-4.53-4.62-7.69-6.51-9.48-1.89-1.79-4.53-2.69-7.92-2.69h-22.36v160.16c0,3.21.28,5.42.85,6.65s1.79,2.03,3.68,2.41l11.6,3.11v12.45h-76.12v-12.45l11.89-3.11c1.7-.38,2.83-1.18,3.4-2.41s.85-3.44.85-6.65v-160.16h-22.35c-3.4,0-6.04.9-7.92,2.69s-4.06,4.95-6.51,9.48l-12.17,22.35-13.58-1.7,2.83-51.78Z"/>
      <path class="cls-5" d="M1192.3,1123.27c0,3.21.28,5.42.85,6.65s1.79,2.03,3.68,2.41l11.6,3.11v12.45h-76.12v-12.45l11.89-3.11c1.7-.38,2.83-1.18,3.4-2.41s.85-3.44.85-6.65v-154.5c0-3.21-.28-5.42-.85-6.65-.57-1.23-1.7-2.03-3.4-2.41l-11.89-3.11v-12.45h76.4v12.45l-11.88,3.11c-1.89.38-3.11,1.18-3.68,2.41-.57,1.23-.85,3.44-.85,6.65v154.5Z"/>
      <path class="cls-5" d="M1362.23,945c10.47,3.02,19.9,8.3,28.3,15.85,8.4,7.55,14.71,18.35,18.96,32.4,4.24,14.05,6.37,31.36,6.37,51.92,0,37.73-7.88,64.99-23.63,81.78-15.75,16.79-38.44,25.18-68.05,25.18s-53.95-8.02-69.04-24.05c-15.09-16.03-22.64-43.67-22.64-82.91,0-20.37,2.12-37.54,6.37-51.5,4.25-13.96,10.61-24.71,19.1-32.26,8.49-7.55,18.06-12.92,28.72-16.13,10.66-3.21,23.34-4.81,38.06-4.81s27.02,1.51,37.49,4.53ZM1298.84,966.22c-6.51,4.72-11.51,13.35-15,25.89-3.49,12.54-5.23,29.85-5.23,51.92,0,31.88,3.11,54.75,9.34,68.62,6.23,13.87,18.3,20.8,36.22,20.8,16.6,0,28.34-7.17,35.23-21.51,6.89-14.34,10.33-36.97,10.33-67.91,0-21.88-1.79-39.19-5.38-51.92-3.58-12.73-8.49-21.41-14.71-26.03-6.23-4.62-14.43-6.93-24.62-6.93-10.94,0-19.67,2.36-26.17,7.07Z"/>
      <path class="cls-5" d="M1473.86,1116.48c0,5.47.47,9.43,1.41,11.89.94,2.45,3.02,4.06,6.23,4.81l8.49,2.26v12.45h-52.92v-12.45l8.21-2.26c3.21-.75,5.33-2.36,6.37-4.81,1.04-2.45,1.56-6.41,1.56-11.89v-145.73c0-4.72-.99-7.92-2.97-9.62-1.98-1.7-6.27-3.21-12.88-4.53v-12.45h54.05l96.21,131.86v-107.25c0-3.21-.28-5.42-.85-6.65-.57-1.23-1.79-2.03-3.68-2.41l-11.6-3.11v-12.45h52.92v12.45l-11.6,3.11c-1.89.38-3.11,1.18-3.68,2.41-.57,1.23-.85,3.44-.85,6.65v179.12h-21.22l-113.19-153.37v121.96Z"/>
      <path class="cls-5" d="M1650.71,1140.53l-3.11-51.78,15.85-1.7,14.15,26.88c3.4,6.6,7.59,11.51,12.59,14.71,5,3.21,12.97,4.81,23.91,4.81,9.43,0,17.36-2.64,23.77-7.92,6.41-5.28,9.62-12.73,9.62-22.36s-2.45-17.36-7.36-23.2c-4.91-5.85-14.71-12.92-29.43-21.22-23.39-13.2-39.29-24.24-47.68-33.11-8.4-8.87-12.59-20.19-12.59-33.96,0-16.41,5.8-29.05,17.4-37.92,11.6-8.87,28.72-13.3,51.36-13.3,20.94,0,40.28,2.07,58.01,6.23l3.4,49.8-15.85,1.7-13.3-25.75c-4.72-8.87-15.66-13.3-32.82-13.3-18.86,0-28.3,7.64-28.3,22.92,0,7.55,2.64,13.86,7.92,18.96,5.28,5.09,18.3,13.3,39.05,24.62,21.69,11.88,35.98,22.4,42.87,31.55,6.89,9.15,10.33,20.52,10.33,34.1,0,4.15-.52,8.54-1.56,13.16-1.04,4.62-3.3,9.86-6.79,15.7-3.49,5.85-7.97,11.08-13.44,15.7-5.47,4.62-13.21,8.49-23.2,11.6s-21.41,4.67-34.24,4.67c-20.94,0-41.13-3.87-60.56-11.6Z"/>
    </g>
  </g>
  <path class="cls-2" d="M799.63,771.21h121.08l2.1,38.4-10.07,1.26-9.02-16.58c-1.82-3.36-3.43-5.7-4.83-7.03-1.4-1.33-3.36-1.99-5.88-1.99h-16.58v118.77c0,2.38.21,4.02.63,4.93.42.91,1.33,1.5,2.73,1.78l8.6,2.31v9.23h-56.45v-9.23l8.81-2.31c1.26-.28,2.1-.87,2.52-1.78.42-.91.63-2.55.63-4.93v-118.77h-16.58c-2.52,0-4.48.66-5.88,1.99-1.4,1.33-3.01,3.67-4.83,7.03l-9.02,16.58-10.07-1.26,2.1-38.4Z"/>
  <path class="cls-2" d="M985.76,917.85l-2.31-38.4,11.75-1.26,10.49,19.94c2.52,4.9,5.63,8.53,9.34,10.91,3.71,2.38,9.62,3.57,17.73,3.57,6.99,0,12.87-1.96,17.63-5.88,4.76-3.92,7.14-9.44,7.14-16.58s-1.82-12.87-5.46-17.21c-3.64-4.34-10.91-9.58-21.82-15.74-17.35-9.79-29.13-17.98-35.36-24.55-6.23-6.58-9.34-14.97-9.34-25.18,0-12.17,4.3-21.54,12.91-28.12,8.6-6.58,21.3-9.86,38.09-9.86,15.53,0,29.87,1.54,43.02,4.62l2.52,36.93-11.75,1.26-9.86-19.1c-3.5-6.58-11.61-9.86-24.34-9.86-13.99,0-20.98,5.67-20.98,17,0,5.6,1.96,10.28,5.88,14.06,3.92,3.78,13.57,9.86,28.96,18.26,16.09,8.81,26.69,16.61,31.79,23.4,5.11,6.79,7.66,15.21,7.66,25.29,0,3.08-.38,6.33-1.15,9.76-.77,3.43-2.45,7.31-5.04,11.65-2.59,4.34-5.91,8.22-9.97,11.65-4.06,3.43-9.79,6.3-17.21,8.6-7.41,2.31-15.88,3.46-25.39,3.46-15.53,0-30.5-2.87-44.91-8.6Z"/>
  <path class="cls-2" d="M1209.35,772.85c7.76,2.24,14.76,6.16,20.98,11.75,6.23,5.6,10.91,13.6,14.06,24.03,3.15,10.42,4.72,23.26,4.72,38.51,0,27.98-5.84,48.19-17.52,60.65-11.68,12.45-28.5,18.68-50.47,18.68s-40.01-5.95-51.2-17.84c-11.19-11.89-16.79-32.39-16.79-61.49,0-15.11,1.57-27.84,4.72-38.19,3.15-10.35,7.87-18.33,14.17-23.92,6.3-5.6,13.4-9.58,21.3-11.96,7.9-2.38,17.31-3.57,28.22-3.57s20.04,1.12,27.8,3.36ZM1162.34,788.59c-4.83,3.5-8.53,9.9-11.12,19.2-2.59,9.3-3.88,22.14-3.88,38.51,0,23.64,2.31,40.61,6.92,50.89s13.57,15.42,26.86,15.42c12.31,0,21.02-5.32,26.13-15.95,5.11-10.63,7.66-27.42,7.66-50.36,0-16.23-1.33-29.06-3.99-38.51-2.66-9.44-6.3-15.88-10.91-19.31-4.62-3.43-10.7-5.14-18.26-5.14-8.11,0-14.58,1.75-19.41,5.25Z"/>
  <path class="cls-2" d="M1385.73,880.5c0,15.39-4.48,26.9-13.43,34.52-8.95,7.62-20.98,11.44-36.09,11.44-19.73,0-34.38-3.67-43.96-11.02-9.58-7.34-14.38-19.97-14.38-37.88v-87.09c0-2.38-.21-4.02-.63-4.93s-1.33-1.5-2.73-1.78l-8.6-2.31v-9.23h56.24v9.23l-8.6,2.31c-1.4.28-2.31.87-2.73,1.78s-.63,2.55-.63,4.93v84.99c0,5.32.35,9.93,1.05,13.85.7,3.92,2.03,7.73,3.99,11.44,1.96,3.71,5,6.54,9.13,8.5,4.13,1.96,9.34,2.94,15.63,2.94,3.78,0,7.31-.49,10.6-1.47,3.29-.98,6.51-2.69,9.65-5.14,3.15-2.45,5.63-6.12,7.45-11.02,1.82-4.9,2.73-10.84,2.73-17.84v-86.25c0-2.38-.21-4.02-.63-4.93s-1.26-1.5-2.52-1.78l-8.81-2.31v-9.23h39.24v9.23l-8.6,2.31c-1.4.28-2.31.87-2.73,1.78s-.63,2.55-.63,4.93v90.02Z"/>
  <path class="cls-2" d="M1461.9,905.05c0,2.38.21,4.02.63,4.93.42.91,1.33,1.5,2.73,1.78l8.6,2.31v9.23h-56.45v-9.23l8.81-2.31c1.26-.28,2.1-.87,2.52-1.78.42-.91.63-2.55.63-4.93v-112.06c0-5.32-.77-8.32-2.31-9.02l-9.65-2.52v-9.23h59.18c5.74,0,10.49.14,14.27.42,3.78.28,8.46,1.12,14.06,2.52,5.6,1.4,10.11,3.39,13.53,5.98,3.43,2.59,6.4,6.43,8.92,11.54,2.52,5.11,3.78,11.23,3.78,18.36,0,21.68-10.42,35.39-31.27,41.13l33.37,53.51c1.82,2.8,3.64,4.72,5.46,5.77,1.82,1.05,4.76,1.92,8.81,2.62v9.23h-39.03l-38.4-66.1h-8.18v47.84ZM1461.9,845.04h13.01c8.39,0,14.48-2.87,18.26-8.6,3.78-5.74,5.67-13.15,5.67-22.24s-1.92-16.54-5.77-21.09c-3.85-4.55-10.11-6.82-18.78-6.82h-12.38v58.76Z"/>
  <path class="cls-2" d="M1667.97,880.92l-5.25,32.95c-15.11,8.39-30.78,12.59-47.01,12.59-44.91,0-67.36-25.04-67.36-75.13,0-28.12,5.67-48.79,17-62.01,11.33-13.22,29.45-19.83,54.35-19.83,17.21,0,32.39,1.54,45.54,4.62l2.31,39.66-11.75,1.26-11.75-22.45c-1.82-3.22-4.37-5.56-7.66-7.03s-8.43-2.2-15.42-2.2c-13.71,0-23.5,5.14-29.38,15.42-5.88,10.28-8.81,26.76-8.81,49.42s2.8,37.84,8.39,48.47c5.6,10.63,14.62,15.95,27.07,15.95,10.91,0,18.68-3.43,23.29-10.28l14.9-22.87,11.54,1.47Z"/>
  <path class="cls-2" d="M1756.74,909.25c3.92,0,6.85-.66,8.81-1.99s3.78-3.74,5.46-7.24l8.18-16.79,11.54,1.26-3.78,38.82h-106.6v-9.23l8.6-2.31c1.4-.28,2.31-.87,2.73-1.78.42-.91.63-2.55.63-4.93v-114.58c0-2.38-.21-4.02-.63-4.93s-1.33-1.5-2.73-1.78l-8.6-2.31v-9.23h104.29l2.1,37.98-10.28,1.26-7.97-14.69c-1.4-2.52-2.52-4.37-3.36-5.56s-2.31-2.31-4.41-3.36c-2.1-1.05-4.69-1.57-7.76-1.57h-28.12v53.93h15.32c2.52,0,4.37-1.05,5.56-3.15,1.19-2.1,2.83-7.34,4.93-15.74h11.54v50.99h-11.54c-2.24-8.25-3.92-13.43-5.04-15.53-1.12-2.1-2.87-3.15-5.25-3.15h-15.53v55.61h31.9Z"/>
  <g>
    <path class="cls-7" d="M217.24,1147.08l-3.11-51.72,15.83-1.7,14.13,26.85c3.39,6.6,7.58,11.49,12.58,14.7s12.95,4.8,23.88,4.8c9.42,0,17.34-2.64,23.74-7.91,6.41-5.28,9.61-12.72,9.61-22.33s-2.45-17.33-7.35-23.18c-4.9-5.84-14.7-12.91-29.39-21.2-23.36-13.19-39.24-24.21-47.62-33.07-8.38-8.86-12.58-20.16-12.58-33.92,0-16.39,5.79-29.02,17.38-37.87,11.59-8.86,28.69-13.28,51.3-13.28,20.92,0,40.23,2.07,57.94,6.22l3.39,49.74-15.83,1.7-13.28-25.72c-4.71-8.86-15.64-13.28-32.79-13.28-18.84,0-28.26,7.63-28.26,22.89,0,7.54,2.64,13.85,7.91,18.94s18.28,13.28,39,24.59c21.67,11.87,35.94,22.38,42.82,31.51,6.88,9.14,10.32,20.49,10.32,34.06,0,4.14-.52,8.53-1.55,13.14-1.04,4.62-3.3,9.84-6.78,15.69-3.49,5.84-7.96,11.07-13.43,15.69-5.46,4.62-13.19,8.48-23.18,11.59-9.99,3.11-21.39,4.66-34.2,4.66-20.92,0-41.08-3.86-60.48-11.59Z"/>
    <path class="cls-7" d="M512.74,951.77c10.46,3.01,19.88,8.29,28.26,15.83,8.38,7.54,14.7,18.32,18.94,32.36,4.24,14.04,6.36,31.33,6.36,51.86,0,37.68-7.87,64.91-23.6,81.68-15.73,16.77-38.39,25.15-67.97,25.15s-53.89-8.01-68.96-24.02c-15.07-16.02-22.61-43.62-22.61-82.81,0-20.35,2.12-37.5,6.36-51.44,4.24-13.94,10.6-24.68,19.08-32.22,8.48-7.54,18.04-12.91,28.69-16.11s23.32-4.8,38.02-4.8,26.99,1.51,37.45,4.52ZM449.43,972.97c-6.5,4.71-11.49,13.33-14.98,25.86-3.49,12.53-5.23,29.82-5.23,51.86,0,31.84,3.11,54.69,9.33,68.54,6.22,13.85,18.28,20.77,36.18,20.77,16.58,0,28.31-7.16,35.19-21.48s10.32-36.93,10.32-67.83c0-21.86-1.79-39.15-5.37-51.86-3.58-12.72-8.48-21.39-14.7-26-6.22-4.62-14.41-6.92-24.59-6.92-10.93,0-19.64,2.35-26.14,7.07Z"/>
    <path class="cls-7" d="M693.48,1134.64c4.33,0,7.49-.66,9.47-1.98,1.98-1.32,3.82-3.96,5.51-7.91l11.02-27.13,15.54,1.7-5.09,55.11h-141.04v-12.44l11.87-3.11c1.7-.38,2.83-1.18,3.39-2.4.56-1.22.85-3.44.85-6.64v-154.32c0-3.2-.28-5.42-.85-6.64-.57-1.23-1.7-2.03-3.39-2.4l-11.87-3.11v-12.44h76.31v12.44l-11.87,3.11c-3.01.75-4.52,3.77-4.52,9.04v159.12h44.66Z"/>
    <path class="cls-7" d="M913.65,1096.77c0,20.73-6.03,36.22-18.09,46.49-12.06,10.27-28.26,15.4-48.61,15.4-26.57,0-46.31-4.95-59.21-14.84-12.91-9.89-19.36-26.9-19.36-51.02v-117.29c0-3.2-.28-5.42-.85-6.64-.57-1.23-1.79-2.03-3.67-2.4l-11.59-3.11v-12.44h75.75v12.44l-11.59,3.11c-1.88.38-3.11,1.18-3.67,2.4-.57,1.22-.85,3.44-.85,6.64v114.47c0,7.16.47,13.38,1.41,18.65.94,5.28,2.73,10.41,5.37,15.4,2.64,4.99,6.74,8.81,12.29,11.45,5.56,2.64,12.58,3.96,21.06,3.96,5.09,0,9.85-.66,14.27-1.98,4.43-1.32,8.76-3.63,13-6.92,4.24-3.3,7.58-8.24,10.03-14.84,2.45-6.59,3.67-14.6,3.67-24.02v-116.16c0-3.2-.28-5.42-.85-6.64-.57-1.23-1.7-2.03-3.39-2.4l-11.87-3.11v-12.44h52.85v12.44l-11.59,3.11c-1.88.38-3.11,1.18-3.67,2.4-.56,1.22-.85,3.44-.85,6.64v121.25Z"/>
    <path class="cls-7" d="M946.72,950.92h163.08l2.83,51.72-13.57,1.7-12.15-22.33c-2.45-4.52-4.62-7.68-6.5-9.47-1.88-1.79-4.52-2.68-7.91-2.68h-22.33v159.97c0,3.2.28,5.42.85,6.64s1.79,2.03,3.67,2.4l11.59,3.11v12.44h-76.03v-12.44l11.87-3.11c1.7-.38,2.83-1.18,3.39-2.4s.85-3.44.85-6.64v-159.97h-22.33c-3.39,0-6.03.89-7.91,2.68s-4.05,4.95-6.5,9.47l-12.15,22.33-13.57-1.7,2.83-51.72Z"/>
    <path class="cls-7" d="M1189.79,1129.83c0,3.2.28,5.42.85,6.64s1.79,2.03,3.67,2.4l11.59,3.11v12.44h-76.03v-12.44l11.87-3.11c1.7-.38,2.83-1.18,3.39-2.4s.85-3.44.85-6.64v-154.32c0-3.2-.28-5.42-.85-6.64-.57-1.23-1.7-2.03-3.39-2.4l-11.87-3.11v-12.44h76.31v12.44l-11.87,3.11c-1.88.38-3.11,1.18-3.67,2.4-.57,1.22-.85,3.44-.85,6.64v154.32Z"/>
    <path class="cls-7" d="M1359.51,951.77c10.46,3.01,19.88,8.29,28.26,15.83,8.39,7.54,14.7,18.32,18.94,32.36,4.24,14.04,6.36,31.33,6.36,51.86,0,37.68-7.87,64.91-23.6,81.68-15.73,16.77-38.39,25.15-67.97,25.15s-53.89-8.01-68.96-24.02c-15.07-16.02-22.61-43.62-22.61-82.81,0-20.35,2.12-37.5,6.36-51.44,4.24-13.94,10.6-24.68,19.08-32.22,8.48-7.54,18.04-12.91,28.69-16.11,10.65-3.2,23.32-4.8,38.01-4.8s26.99,1.51,37.45,4.52ZM1296.2,972.97c-6.5,4.71-11.49,13.33-14.98,25.86-3.49,12.53-5.23,29.82-5.23,51.86,0,31.84,3.11,54.69,9.33,68.54s18.28,20.77,36.18,20.77c16.58,0,28.31-7.16,35.19-21.48s10.32-36.93,10.32-67.83c0-21.86-1.79-39.15-5.37-51.86-3.58-12.72-8.48-21.39-14.7-26-6.22-4.62-14.42-6.92-24.59-6.92-10.93,0-19.64,2.35-26.14,7.07Z"/>
    <path class="cls-7" d="M1471.01,1123.05c0,5.46.47,9.42,1.41,11.87.94,2.45,3.02,4.05,6.22,4.8l8.48,2.26v12.44h-52.85v-12.44l8.2-2.26c3.2-.75,5.32-2.36,6.36-4.8,1.04-2.45,1.55-6.41,1.55-11.87v-145.56c0-4.71-.99-7.91-2.97-9.61-1.98-1.7-6.27-3.2-12.86-4.52v-12.44h53.98l96.1,131.71v-107.12c0-3.2-.28-5.42-.85-6.64-.57-1.23-1.79-2.03-3.67-2.4l-11.59-3.11v-12.44h52.85v12.44l-11.59,3.11c-1.88.38-3.11,1.18-3.67,2.4-.57,1.22-.85,3.44-.85,6.64v178.91h-21.2l-113.06-153.19v121.82Z"/>
    <path class="cls-7" d="M1647.66,1147.08l-3.11-51.72,15.83-1.7,14.13,26.85c3.39,6.6,7.58,11.49,12.58,14.7s12.95,4.8,23.88,4.8c9.42,0,17.33-2.64,23.74-7.91,6.41-5.28,9.61-12.72,9.61-22.33s-2.45-17.33-7.35-23.18c-4.9-5.84-14.7-12.91-29.39-21.2-23.36-13.19-39.24-24.21-47.62-33.07-8.39-8.86-12.58-20.16-12.58-33.92,0-16.39,5.79-29.02,17.38-37.87,11.59-8.86,28.69-13.28,51.3-13.28,20.92,0,40.23,2.07,57.94,6.22l3.39,49.74-15.83,1.7-13.28-25.72c-4.71-8.86-15.64-13.28-32.79-13.28-18.84,0-28.26,7.63-28.26,22.89,0,7.54,2.64,13.85,7.91,18.94,5.28,5.09,18.28,13.28,39,24.59,21.67,11.87,35.94,22.38,42.82,31.51,6.88,9.14,10.32,20.49,10.32,34.06,0,4.14-.52,8.53-1.55,13.14-1.04,4.62-3.3,9.84-6.78,15.69-3.49,5.84-7.96,11.07-13.42,15.69-5.46,4.62-13.19,8.48-23.18,11.59s-21.39,4.66-34.2,4.66c-20.92,0-41.08-3.86-60.48-11.59Z"/>
  </g>
  <g>
    <path class="cls-7" d="M297.08,915.31c3.86,0,6.75-.65,8.68-1.96s3.72-3.69,5.37-7.13l8.06-16.53,11.36,1.24-3.72,38.22h-104.96v-9.09l8.47-2.27c1.38-.28,2.27-.86,2.69-1.76.41-.9.62-2.51.62-4.86v-112.81c0-2.34-.21-3.96-.62-4.86s-1.31-1.48-2.69-1.76l-8.47-2.27v-9.09h102.69l2.07,37.4-10.12,1.24-7.85-14.46c-1.38-2.48-2.48-4.3-3.31-5.48s-2.27-2.27-4.34-3.31c-2.07-1.03-4.61-1.55-7.64-1.55h-27.69v53.1h15.08c2.48,0,4.3-1.03,5.48-3.1,1.17-2.07,2.79-7.23,4.86-15.5h11.36v50.21h-11.36c-2.2-8.13-3.86-13.22-4.96-15.29-1.1-2.07-2.82-3.1-5.17-3.1h-15.29v54.75h31.41Z"/>
    <path class="cls-7" d="M488.41,789.48c-5.65,1.38-9.44,3.2-11.36,5.48s-4.27,7.61-7.03,16.01l-39.26,118.19h-22.73l-44.22-126.45c-1.79-5.1-3.34-8.26-4.65-9.5s-4.24-2.48-8.78-3.72v-9.09h54.34v9.09c-3.72.83-6.13,1.69-7.23,2.58-1.1.9-1.65,2.1-1.65,3.62,0,1.93.62,4.75,1.86,8.47l29.75,91.53,21.9-70.25c3.99-12.67,5.99-20.87,5.99-24.59,0-4.13-.79-6.82-2.38-8.06s-4.86-2.34-9.81-3.31v-9.09h45.25v9.09Z"/>
    <path class="cls-7" d="M585.11,915.31c3.86,0,6.75-.65,8.68-1.96s3.72-3.69,5.37-7.13l8.06-16.53,11.36,1.24-3.72,38.22h-104.96v-9.09l8.47-2.27c1.38-.28,2.27-.86,2.69-1.76.41-.9.62-2.51.62-4.86v-112.81c0-2.34-.21-3.96-.62-4.86s-1.31-1.48-2.69-1.76l-8.47-2.27v-9.09h102.69l2.07,37.4-10.12,1.24-7.85-14.46c-1.38-2.48-2.48-4.3-3.31-5.48s-2.27-2.27-4.34-3.31c-2.07-1.03-4.61-1.55-7.64-1.55h-27.69v53.1h15.08c2.48,0,4.3-1.03,5.48-3.1,1.17-2.07,2.79-7.23,4.86-15.5h11.36v50.21h-11.36c-2.2-8.13-3.86-13.22-4.96-15.29-1.1-2.07-2.82-3.1-5.17-3.1h-15.29v54.75h31.41Z"/>
    <path class="cls-7" d="M667.76,906.22c0,3.99.34,6.89,1.03,8.68.69,1.79,2.2,2.96,4.54,3.51l6.2,1.65v9.09h-38.64v-9.09l5.99-1.65c2.34-.55,3.89-1.72,4.65-3.51.76-1.79,1.14-4.68,1.14-8.68v-106.41c0-3.44-.72-5.79-2.17-7.02s-4.58-2.34-9.4-3.31v-9.09h39.46l70.25,96.28v-78.31c0-2.34-.21-3.96-.62-4.86-.41-.9-1.31-1.48-2.69-1.76l-8.47-2.27v-9.09h38.64v9.09l-8.47,2.27c-1.38.28-2.27.86-2.69,1.76s-.62,2.51-.62,4.86v130.79h-15.5l-82.65-111.99v89.05Z"/>
    <path class="cls-7" d="M796.28,780.39h119.22l2.07,37.81-9.92,1.24-8.88-16.32c-1.79-3.31-3.38-5.61-4.75-6.92-1.38-1.31-3.31-1.96-5.79-1.96h-16.32v116.95c0,2.34.21,3.96.62,4.86.41.9,1.31,1.48,2.69,1.76l8.47,2.27v9.09h-55.58v-9.09l8.68-2.27c1.24-.28,2.07-.86,2.48-1.76.41-.9.62-2.51.62-4.86v-116.95h-16.32c-2.48,0-4.41.65-5.79,1.96-1.38,1.31-2.96,3.62-4.75,6.92l-8.88,16.32-9.92-1.24,2.07-37.81Z"/>
    <path class="cls-7" d="M979.54,923.78l-2.27-37.81,11.57-1.24,10.33,19.63c2.48,4.82,5.54,8.4,9.19,10.74,3.65,2.34,9.47,3.51,17.46,3.51,6.89,0,12.67-1.93,17.36-5.79,4.68-3.86,7.03-9.3,7.03-16.32s-1.79-12.67-5.37-16.94c-3.58-4.27-10.74-9.44-21.49-15.5-17.08-9.64-28.69-17.7-34.82-24.17-6.13-6.47-9.19-14.74-9.19-24.79,0-11.98,4.24-21.21,12.71-27.69,8.47-6.47,20.97-9.71,37.5-9.71,15.29,0,29.41,1.52,42.36,4.55l2.48,36.36-11.57,1.24-9.71-18.8c-3.44-6.47-11.43-9.71-23.97-9.71-13.77,0-20.66,5.58-20.66,16.74,0,5.51,1.93,10.12,5.79,13.84,3.86,3.72,13.36,9.71,28.51,17.98,15.84,8.68,26.28,16.36,31.3,23.04,5.03,6.68,7.54,14.98,7.54,24.9,0,3.03-.38,6.23-1.14,9.61-.76,3.38-2.41,7.2-4.96,11.47-2.55,4.27-5.82,8.09-9.81,11.47-3.99,3.37-9.64,6.2-16.94,8.47-7.3,2.27-15.63,3.41-25,3.41-15.29,0-30.03-2.82-44.22-8.47Z"/>
    <path class="cls-7" d="M1199.7,781.01c7.65,2.2,14.53,6.06,20.66,11.57s10.74,13.4,13.84,23.66,4.65,22.9,4.65,37.91c0,27.55-5.75,47.45-17.25,59.71-11.5,12.26-28.07,18.39-49.69,18.39s-39.4-5.85-50.42-17.56-16.53-31.89-16.53-60.54c0-14.88,1.55-27.41,4.65-37.6,3.1-10.19,7.75-18.04,13.95-23.55,6.2-5.51,13.19-9.44,20.97-11.78s17.05-3.51,27.79-3.51,19.73,1.1,27.38,3.31ZM1153.42,796.5c-4.75,3.44-8.4,9.75-10.95,18.91-2.55,9.16-3.82,21.8-3.82,37.92,0,23.28,2.27,39.98,6.82,50.1s13.36,15.19,26.45,15.19c12.12,0,20.7-5.23,25.72-15.7,5.03-10.47,7.54-27,7.54-49.59,0-15.98-1.31-28.62-3.93-37.92-2.62-9.3-6.2-15.63-10.74-19.01-4.55-3.37-10.54-5.06-17.98-5.06-7.99,0-14.36,1.72-19.11,5.17Z"/>
    <path class="cls-7" d="M1373.36,887c0,15.15-4.41,26.48-13.22,33.99-8.82,7.51-20.66,11.26-35.54,11.26-19.42,0-33.85-3.62-43.29-10.85-9.44-7.23-14.15-19.66-14.15-37.29v-85.75c0-2.34-.21-3.96-.62-4.86s-1.31-1.48-2.69-1.76l-8.47-2.27v-9.09h55.37v9.09l-8.47,2.27c-1.38.28-2.27.86-2.69,1.76s-.62,2.51-.62,4.86v83.68c0,5.23.34,9.78,1.03,13.64.69,3.86,2,7.61,3.93,11.26,1.93,3.65,4.92,6.44,8.99,8.37,4.06,1.93,9.19,2.89,15.39,2.89,3.72,0,7.2-.48,10.43-1.45,3.24-.96,6.41-2.65,9.5-5.06s5.54-6.03,7.33-10.85c1.79-4.82,2.69-10.68,2.69-17.56v-84.92c0-2.34-.21-3.96-.62-4.86s-1.24-1.48-2.48-1.76l-8.68-2.27v-9.09h38.64v9.09l-8.47,2.27c-1.38.28-2.27.86-2.69,1.76s-.62,2.51-.62,4.86v88.64Z"/>
    <path class="cls-7" d="M1448.36,911.18c0,2.34.21,3.96.62,4.86.41.9,1.31,1.48,2.69,1.76l8.47,2.27v9.09h-55.58v-9.09l8.68-2.27c1.24-.28,2.07-.86,2.48-1.76.41-.9.62-2.51.62-4.86v-110.33c0-5.23-.76-8.2-2.27-8.88l-9.5-2.48v-9.09h58.27c5.65,0,10.33.14,14.05.41,3.72.28,8.33,1.1,13.84,2.48,5.51,1.38,9.95,3.34,13.33,5.89,3.38,2.55,6.3,6.34,8.78,11.36s3.72,11.05,3.72,18.08c0,21.35-10.26,34.85-30.79,40.5l32.85,52.69c1.79,2.75,3.58,4.65,5.37,5.68,1.79,1.03,4.68,1.89,8.68,2.58v9.09h-38.43l-37.81-65.08h-8.06v47.11ZM1448.36,852.08h12.81c8.26,0,14.26-2.82,17.98-8.47,3.72-5.65,5.58-12.95,5.58-21.9s-1.89-16.29-5.68-20.77c-3.79-4.48-9.95-6.72-18.49-6.72h-12.19v57.85Z"/>
    <path class="cls-7" d="M1651.27,887.42l-5.17,32.44c-14.88,8.26-30.3,12.4-46.28,12.4-44.22,0-66.32-24.66-66.32-73.97,0-27.69,5.58-48.04,16.74-61.06,11.16-13.02,29-19.53,53.51-19.53,16.94,0,31.89,1.52,44.84,4.55l2.27,39.05-11.57,1.24-11.57-22.11c-1.79-3.17-4.3-5.48-7.54-6.92s-8.3-2.17-15.19-2.17c-13.5,0-23.14,5.06-28.93,15.19-5.79,10.12-8.68,26.34-8.68,48.66s2.75,37.26,8.26,47.73,14.39,15.7,26.65,15.7c10.74,0,18.39-3.38,22.93-10.12l14.67-22.52,11.36,1.45Z"/>
    <path class="cls-7" d="M1738.67,915.31c3.86,0,6.75-.65,8.68-1.96s3.72-3.69,5.37-7.13l8.06-16.53,11.36,1.24-3.72,38.22h-104.96v-9.09l8.47-2.27c1.38-.28,2.27-.86,2.69-1.76.41-.9.62-2.51.62-4.86v-112.81c0-2.34-.21-3.96-.62-4.86s-1.31-1.48-2.69-1.76l-8.47-2.27v-9.09h102.69l2.07,37.4-10.12,1.24-7.85-14.46c-1.38-2.48-2.48-4.3-3.31-5.48s-2.27-2.27-4.34-3.31c-2.07-1.03-4.61-1.55-7.64-1.55h-27.69v53.1h15.08c2.48,0,4.3-1.03,5.48-3.1,1.17-2.07,2.79-7.23,4.86-15.5h11.36v50.21h-11.36c-2.2-8.13-3.86-13.22-4.96-15.29-1.1-2.07-2.82-3.1-5.17-3.1h-15.29v54.75h31.41Z"/>
  </g>
  <path class="cls-2" d="M1790.73,711.31l-5.16,32.44c-14.88,8.26-30.3,12.4-46.28,12.4-44.21,0-66.32-24.65-66.32-73.96,0-27.68,5.58-48.03,16.73-61.05,11.16-13.02,28.99-19.52,53.51-19.52,16.94,0,31.89,1.52,44.83,4.55l2.27,39.05-11.57,1.24-11.57-22.11c-1.79-3.17-4.3-5.48-7.54-6.92s-8.3-2.17-15.19-2.17c-13.5,0-23.14,5.06-28.92,15.19-5.78,10.12-8.68,26.34-8.68,48.65s2.75,37.26,8.26,47.72c5.51,10.47,14.39,15.7,26.65,15.7,10.74,0,18.39-3.37,22.93-10.12l14.67-22.52,11.36,1.45Z"/>
  <path class="cls-2" d="M333.98,1271.24l-5.16,32.44c-14.88,8.26-30.3,12.4-46.28,12.4-44.21,0-66.32-24.65-66.32-73.96,0-27.68,5.58-48.03,16.73-61.05,11.16-13.02,28.99-19.52,53.51-19.52,16.94,0,31.89,1.52,44.83,4.55l2.27,39.05-11.57,1.24-11.57-22.11c-1.79-3.17-4.3-5.48-7.54-6.92s-8.3-2.17-15.19-2.17c-13.5,0-23.14,5.06-28.92,15.19-5.78,10.12-8.68,26.34-8.68,48.65s2.75,37.26,8.26,47.72c5.51,10.47,14.39,15.7,26.65,15.7,10.74,0,18.39-3.37,22.93-10.12l14.67-22.52,11.36,1.45Z"/>
  <path class="cls-2" d="M1918.84,765.11l32.44,5.16c8.26,14.88,12.4,30.3,12.4,46.28,0,44.21-24.65,66.32-73.96,66.32-27.68,0-48.03-5.58-61.05-16.73-13.02-11.16-19.52-28.99-19.52-53.51,0-16.94,1.52-31.89,4.55-44.83l39.05-2.27,1.24,11.57-22.11,11.57c-3.17,1.79-5.48,4.3-6.92,7.54-1.45,3.24-2.17,8.3-2.17,15.19,0,13.5,5.06,23.14,15.19,28.92,10.12,5.78,26.34,8.68,48.65,8.68s37.26-2.75,47.72-8.26c10.47-5.51,15.7-14.39,15.7-26.65,0-10.74-3.37-18.39-10.12-22.93l-22.52-14.67,1.45-11.36Z"/>
  <path class="cls-2" d="M162.38,1043.12l32.44,5.16c8.26,14.88,12.4,30.3,12.4,46.28,0,44.21-24.65,66.32-73.96,66.32-27.68,0-48.03-5.58-61.05-16.73-13.02-11.16-19.52-28.99-19.52-53.51,0-16.94,1.52-31.89,4.55-44.83l39.05-2.27,1.24,11.57-22.11,11.57c-3.17,1.79-5.48,4.3-6.92,7.54s-2.17,8.3-2.17,15.19c0,13.5,5.06,23.14,15.19,28.92,10.12,5.78,26.34,8.68,48.65,8.68s37.26-2.75,47.72-8.26c10.47-5.51,15.7-14.39,15.7-26.65,0-10.74-3.37-18.39-10.12-22.93l-22.52-14.67,1.45-11.36Z"/>
  <line class="cls-3" x1="1799.92" y1="575.8" x2="1799.92" y2="1261.22"/>
  <line class="cls-1" x1="18.16" y1="1161.32" x2="1800.75" y2="1161.32"/>
  <line class="cls-1" x1="98.72" y1="765.11" x2="1986.73" y2="765.11"/>
  <line class="cls-1" x1="1799.92" y1="1170.67" x2="1799.92" y2="595.07"/>
  <line class="cls-1" x1="206.91" y1="1351.86" x2="206.91" y2="616.73"/>
</svg>